<?xml version="1.0" encoding="UTF-8"?>
<!DOCTYPE svg PUBLIC "-//W3C//DTD SVG 1.1//EN" "http://www.w3.org/Graphics/SVG/1.1/DTD/svg11.dtd">
<svg xmlns="http://www.w3.org/2000/svg" version="1.1" width="639px" height="218px" style="shape-rendering:geometricPrecision; text-rendering:geometricPrecision; image-rendering:optimizeQuality; fill-rule:evenodd; clip-rule:evenodd" xmlns:xlink="http://www.w3.org/1999/xlink">
<g><path style="opacity:0.911" fill="#234bdf" d="M 130.5,-0.5 C 133.167,-0.5 135.833,-0.5 138.5,-0.5C 143.976,2.15151 147.476,6.48484 149,12.5C 149.667,43.5 149.667,74.5 149,105.5C 144.268,142.45 123.768,165.284 87.5,174C 59.5697,177.646 36.0697,169.146 17,148.5C 7.9601,136.858 2.12676,123.858 -0.5,109.5C -0.5,95.1667 -0.5,80.8333 -0.5,66.5C 3.44048,57.8961 10.1071,54.7294 19.5,57C 24.4277,58.9268 27.5944,62.4268 29,67.5C 29.106,82.2063 29.7727,96.873 31,111.5C 40.3018,137.907 58.8018,148.407 86.5,143C 103.763,137.7 114.596,126.2 119,108.5C 119.333,76.1667 119.667,43.8333 120,11.5C 121.963,6.04369 125.463,2.04369 130.5,-0.5 Z"/></g>
<g><path style="opacity:0.915" fill="#234bdf" d="M 173.5,-0.5 C 176.167,-0.5 178.833,-0.5 181.5,-0.5C 187.286,1.45498 190.786,5.45498 192,11.5C 192.333,43.1667 192.667,74.8333 193,106.5C 199.486,133.651 216.653,146.151 244.5,144C 265.177,140.324 277.677,128.157 282,107.5C 282.333,94.8333 282.667,82.1667 283,69.5C 286.27,57.6141 293.77,53.7808 305.5,58C 307.7,60.2336 309.533,62.7336 311,65.5C 311.667,81.1667 311.667,96.8333 311,112.5C 306.255,137.833 292.422,156.333 269.5,168C 240.88,180.006 214.213,176.673 189.5,158C 174.79,145.084 165.957,128.917 163,109.5C 162.333,76.5 162.333,43.5 163,10.5C 164.658,5.01012 168.158,1.34345 173.5,-0.5 Z"/></g>
<g><path style="opacity:0.914" fill="#234bdf" d="M 336.5,-0.5 C 339.167,-0.5 341.833,-0.5 344.5,-0.5C 346.519,0.933421 348.686,2.26675 351,3.5C 352.586,5.67047 353.92,8.00381 355,10.5C 355.042,44.2003 355.709,77.867 357,111.5C 368.361,140.76 389.195,150.593 419.5,141C 432.885,134.094 441.385,123.261 445,108.5C 445.333,95.1667 445.667,81.8333 446,68.5C 449.834,57.3345 457.334,53.8345 468.5,58C 471.135,59.9605 472.969,62.4605 474,65.5C 475.601,83.4975 475.268,101.497 473,119.5C 461.251,154.066 437.085,172.733 400.5,175.5C 361.906,172.636 337.406,152.636 327,115.5C 325.448,81.5167 325.115,47.5167 326,13.5C 326.393,6.33546 329.893,1.6688 336.5,-0.5 Z"/></g>
<g><path style="opacity:0.855" fill="#234bdf" d="M 458.5,-0.5 C 461.167,-0.5 463.833,-0.5 466.5,-0.5C 479.087,6.87831 480.754,16.3783 471.5,28C 460.778,33.0931 452.945,30.2597 448,19.5C 446.517,10.1306 450.017,3.46393 458.5,-0.5 Z"/></g>
<g><path style="opacity:0.921" fill="#234bdf" d="M 499.5,-0.5 C 502.167,-0.5 504.833,-0.5 507.5,-0.5C 513.248,1.42152 516.748,5.42152 518,11.5C 518.333,43.1667 518.667,74.8333 519,106.5C 525.452,133.608 542.618,146.108 570.5,144C 589.552,140.95 601.719,130.117 607,111.5C 608.264,97.2212 608.931,82.8879 609,68.5C 612.793,57.3558 620.293,53.8558 631.5,58C 634.924,60.5584 637.257,63.7251 638.5,67.5C 638.5,80.8333 638.5,94.1667 638.5,107.5C 631.474,146.69 608.141,169.19 568.5,175C 538.654,175.329 515.487,163.162 499,138.5C 493.792,129.877 490.792,120.543 490,110.5C 489.333,76.8333 489.333,43.1667 490,9.5C 491,7.5 492,5.5 493,3.5C 495.314,2.26675 497.481,0.933421 499.5,-0.5 Z"/></g>
<g><path style="opacity:0.866" fill="#234bdf" d="M 208.5,217.5 C 205.833,217.5 203.167,217.5 200.5,217.5C 191.196,213.56 187.696,206.56 190,196.5C 197.913,184.737 206.913,183.737 217,193.5C 221.57,204.299 218.736,212.299 208.5,217.5 Z"/></g>
<g><path style="opacity:0.853" fill="#234bdf" d="M 242.5,217.5 C 239.5,217.5 236.5,217.5 233.5,217.5C 224.52,213.878 221.02,207.212 223,197.5C 225.681,190.984 230.515,187.317 237.5,186.5C 251.104,189.375 255.604,197.375 251,210.5C 248.291,213.232 245.458,215.565 242.5,217.5 Z"/></g>
<g><path style="opacity:0.846" fill="#234bdf" d="M 274.5,217.5 C 271.833,217.5 269.167,217.5 266.5,217.5C 257.52,213.878 254.02,207.212 256,197.5C 262.241,186.32 270.741,184.153 281.5,191C 289.447,202.647 287.114,211.48 274.5,217.5 Z"/></g>
<g><path style="opacity:0.849" fill="#234bdf" d="M 534.5,217.5 C 531.833,217.5 529.167,217.5 526.5,217.5C 517.214,213.596 513.714,206.596 516,196.5C 522.687,186.036 531.187,184.202 541.5,191C 547.218,197.474 547.718,204.308 543,211.5C 540.329,213.902 537.495,215.902 534.5,217.5 Z"/></g>
<g><path style="opacity:0.849" fill="#234bdf" d="M 567.5,217.5 C 564.833,217.5 562.167,217.5 559.5,217.5C 550.52,213.878 547.02,207.212 549,197.5C 555.177,186.164 563.677,183.997 574.5,191C 579.627,196.991 580.46,203.491 577,210.5C 574.175,213.476 571.008,215.809 567.5,217.5 Z"/></g>
<g><path style="opacity:0.853" fill="#234bdf" d="M 600.5,217.5 C 597.833,217.5 595.167,217.5 592.5,217.5C 590.044,215.934 587.544,214.267 585,212.5C 578.345,199.073 582.179,190.407 596.5,186.5C 610.123,189.414 614.623,197.414 610,210.5C 607.442,213.924 604.275,216.257 600.5,217.5 Z"/></g>
</svg>
