<svg xmlns="http://www.w3.org/2000/svg" width="3000" height="900" viewBox="0 0 3000 900" version="1.1"><path d="M 2341.500 185.944 C 2332.364 188.233, 2321.116 196.533, 2316.519 204.377 C 2312.106 211.908, 2283.093 285.696, 2282.085 291.953 C 2280.116 304.179, 2284.438 318.058, 2292.942 326.820 C 2298.350 332.393, 2319.297 346.198, 2326.694 349.064 C 2334.225 351.983, 2345.281 352.217, 2353 349.622 C 2356.503 348.445, 2371.192 339.371, 2393.449 324.637 L 2428.399 301.500 2436.559 301.500 L 2444.719 301.500 2478.206 323.804 C 2496.624 336.072, 2514.575 347.293, 2518.096 348.740 C 2526.140 352.046, 2536.754 352.394, 2545 349.622 C 2548.503 348.445, 2563.192 339.371, 2585.449 324.637 L 2620.399 301.500 2628.559 301.500 L 2636.719 301.500 2670.187 323.791 C 2688.594 336.052, 2706.320 347.169, 2709.577 348.496 C 2718.322 352.058, 2724.608 352.562, 2733.679 350.425 C 2740.309 348.864, 2743.343 347.297, 2756.056 338.865 C 2764.145 333.500, 2772.156 327.420, 2773.860 325.354 C 2781.305 316.321, 2785.038 302.764, 2783.113 291.750 C 2782.017 285.482, 2752.902 211.176, 2749.078 204.888 C 2745.406 198.849, 2737.790 192.003, 2731.108 188.733 L 2724.500 185.500 2534.500 185.346 C 2430 185.261, 2343.150 185.530, 2341.500 185.944" stroke="none" fill="#dbc30c" fill-rule="evenodd"/><path d="M 2332.500 141.995 C 2308.156 148.169, 2289.422 162.010, 2276.999 183 C 2272.337 190.876, 2241.839 266.900, 2239.014 277.687 C 2237.505 283.447, 2237.003 288.529, 2237.012 297.938 C 2237.032 319.213, 2242.239 334.937, 2254.585 351 C 2260.601 358.827, 2266.198 364.001, 2276.500 371.256 L 2285.500 377.594 2285.753 546.797 L 2286.006 716 2262.753 716.022 C 2242.390 716.041, 2239.003 716.271, 2235.500 717.871 C 2222.464 723.825, 2217.869 740.169, 2226.053 751.474 C 2228.016 754.185, 2231.435 757.263, 2233.994 758.623 L 2238.488 761.010 2533.567 760.755 L 2828.646 760.500 2832.815 757.741 C 2835.107 756.224, 2838.224 753.107, 2839.741 750.814 C 2842.181 747.128, 2842.500 745.712, 2842.500 738.573 C 2842.500 731.143, 2842.249 730.139, 2839.348 725.962 C 2837.444 723.221, 2834.223 720.351, 2831.213 718.712 L 2826.229 716 2803.115 716 L 2780 716 2780 546.563 L 2780 377.127 2787.250 372.354 C 2797.795 365.411, 2811.554 351.180, 2816.898 341.688 C 2827.997 321.975, 2831.224 300.264, 2826.291 278.500 C 2824.496 270.582, 2794.665 194.966, 2789.405 185 C 2784.952 176.566, 2775.606 165.347, 2767.742 158.998 C 2759.463 152.314, 2743.555 144.547, 2733 142.036 C 2724.614 140.041, 2721.922 140.015, 2532 140.117 C 2351.116 140.214, 2339.078 140.327, 2332.500 141.995 M 2341.500 185.944 C 2332.364 188.233, 2321.116 196.533, 2316.519 204.377 C 2312.106 211.908, 2283.093 285.696, 2282.085 291.953 C 2280.116 304.179, 2284.438 318.058, 2292.942 326.820 C 2298.350 332.393, 2319.297 346.198, 2326.694 349.064 C 2334.225 351.983, 2345.281 352.217, 2353 349.622 C 2356.503 348.445, 2371.192 339.371, 2393.449 324.637 L 2428.399 301.500 2436.559 301.500 L 2444.719 301.500 2478.206 323.804 C 2496.624 336.072, 2514.575 347.293, 2518.096 348.740 C 2526.140 352.046, 2536.754 352.394, 2545 349.622 C 2548.503 348.445, 2563.192 339.371, 2585.449 324.637 L 2620.399 301.500 2628.559 301.500 L 2636.719 301.500 2670.187 323.791 C 2688.594 336.052, 2706.320 347.169, 2709.577 348.496 C 2718.322 352.058, 2724.608 352.562, 2733.679 350.425 C 2740.309 348.864, 2743.343 347.297, 2756.056 338.865 C 2764.145 333.500, 2772.156 327.420, 2773.860 325.354 C 2781.305 316.321, 2785.038 302.764, 2783.113 291.750 C 2782.017 285.482, 2752.902 211.176, 2749.078 204.888 C 2745.406 198.849, 2737.790 192.003, 2731.108 188.733 L 2724.500 185.500 2534.500 185.346 C 2430 185.261, 2343.150 185.530, 2341.500 185.944 M 2410.963 367.156 C 2396.958 376.512, 2382.985 385.449, 2379.911 387.016 C 2367.426 393.383, 2346.357 397.833, 2335.650 396.365 L 2330.994 395.727 2331.247 555.614 L 2331.500 715.500 2388.704 715.758 L 2445.908 716.016 2446.217 638.758 L 2446.525 561.500 2449.727 552.270 C 2453.622 541.038, 2454.890 538.507, 2461.243 529.275 C 2477.596 505.512, 2504.135 491.644, 2533 491.780 C 2557.056 491.893, 2576.520 500.227, 2594 517.897 C 2604.848 528.863, 2610.100 537.311, 2615.201 552 L 2618.500 561.500 2618.791 638.750 L 2619.081 716 2676.541 716 L 2734 716 2734 555.864 L 2734 395.728 2729.347 396.366 C 2723.463 397.172, 2708.363 395.421, 2700.406 393.009 C 2689.161 389.600, 2681.636 385.409, 2655.500 367.996 C 2641.200 358.469, 2629.050 350.680, 2628.500 350.688 C 2627.950 350.696, 2616.025 358.361, 2602 367.722 C 2587.975 377.082, 2574.215 385.892, 2571.423 387.300 C 2557.554 394.290, 2539.232 397.562, 2523.500 395.858 C 2504.757 393.829, 2496.682 390.096, 2464 368.354 C 2449.975 359.023, 2438.033 351.109, 2437.463 350.767 C 2436.892 350.425, 2424.967 357.800, 2410.963 367.156 M 1016.008 496.250 C 1016.012 555.341, 1016.389 590.805, 1017.056 594.914 C 1019.223 608.271, 1027.047 618.448, 1038.798 623.196 L 1044.500 625.500 1280.500 625.500 L 1516.500 625.500 1522.493 623.087 C 1530.595 619.825, 1538.825 611.595, 1542.087 603.493 L 1544.500 597.500 1544.795 549.250 L 1545.090 501 1523.640 501 L 1502.190 501 1501.845 536.750 C 1501.521 570.356, 1501.380 572.704, 1499.500 575.895 C 1498.400 577.763, 1496.230 580.238, 1494.677 581.395 L 1491.854 583.500 1287.177 583.781 C 1154.421 583.964, 1080.227 583.711, 1076.032 583.063 C 1069.254 582.017, 1065.997 580.216, 1062.562 575.615 C 1060.523 572.885, 1060.497 571.925, 1060.228 488.427 L 1059.956 404 1037.978 404 L 1016 404 1016.008 496.250 M 1578.008 496.250 C 1578.012 555.341, 1578.389 590.805, 1579.056 594.914 C 1581.223 608.271, 1589.047 618.448, 1600.798 623.196 L 1606.500 625.500 1842.500 625.500 L 2078.500 625.500 2084.493 623.087 C 2092.595 619.825, 2100.825 611.595, 2104.087 603.493 L 2106.500 597.500 2106.795 549.250 L 2107.090 501 2085.640 501 L 2064.190 501 2063.845 536.750 C 2063.521 570.356, 2063.380 572.704, 2061.500 575.895 C 2060.400 577.763, 2058.230 580.238, 2056.677 581.395 L 2053.854 583.500 1849.177 583.781 C 1716.421 583.964, 1642.227 583.711, 1638.032 583.063 C 1631.254 582.017, 1627.997 580.216, 1624.562 575.615 C 1622.523 572.885, 1622.497 571.925, 1622.228 488.427 L 1621.956 404 1599.978 404 L 1578 404 1578.008 496.250 M 1502.200 441.200 C 1500.505 442.895, 1500.505 481.105, 1502.200 482.800 C 1503.895 484.495, 1542.105 484.495, 1543.800 482.800 C 1545.495 481.105, 1545.495 442.895, 1543.800 441.200 C 1542.105 439.505, 1503.895 439.505, 1502.200 441.200 M 338.254 573.250 C 338.598 644.205, 338.645 645.652, 340.835 654 C 348.351 682.644, 368.969 703.243, 398.088 711.201 C 405.533 713.236, 408.684 713.494, 425.500 713.449 C 443.243 713.400, 445.082 713.218, 453.297 710.689 C 470.187 705.490, 482.005 698.089, 494.324 684.994 C 504.260 674.431, 510.492 662.363, 512.211 650.352 C 513.697 639.973, 512.421 635.065, 506.860 629.761 L 502.939 626.022 722.219 625.761 L 941.500 625.500 947.493 623.087 C 955.595 619.825, 963.825 611.595, 967.087 603.493 L 969.500 597.500 969.795 549.250 L 970.090 501 948.640 501 L 927.190 501 926.845 536.750 C 926.521 570.356, 926.380 572.704, 924.500 575.895 C 923.400 577.763, 921.230 580.238, 919.677 581.395 L 916.854 583.500 673.427 583.770 L 430 584.039 430 605.020 L 430 626 436.250 626.031 C 452.864 626.113, 464.528 629.540, 468.095 635.387 C 478.630 652.656, 457.296 670.232, 425.805 670.227 C 400.802 670.224, 386.868 660.396, 383.008 640.040 C 382.394 636.804, 382 608.596, 382 567.864 L 382 501 359.951 501 L 337.903 501 338.254 573.250 M 2525 538.086 C 2510.545 540.872, 2498.295 551.556, 2493.650 565.428 C 2492.177 569.828, 2492 578.163, 2492 643.189 L 2492 716.022 2532.750 715.761 L 2573.500 715.500 2573.765 649 C 2573.911 612.425, 2573.637 578.889, 2573.156 574.475 C 2571.106 555.650, 2558.008 541.506, 2539.447 538.075 C 2532.885 536.862, 2531.348 536.863, 2525 538.086 M 777.200 651.200 C 776.350 652.050, 776 657.978, 776 671.500 C 776 685.022, 776.350 690.950, 777.200 691.800 C 778.115 692.715, 799.364 693, 866.740 693 C 951.704 693, 955.221 692.927, 958.790 691.092 C 975.081 682.712, 975.081 660.288, 958.790 651.908 C 955.221 650.073, 951.704 650, 866.740 650 C 799.364 650, 778.115 650.285, 777.200 651.200 M 1913.200 651.200 C 1912.350 652.050, 1912 657.978, 1912 671.500 C 1912 685.022, 1912.350 690.950, 1913.200 691.800 C 1914.115 692.715, 1935.364 693, 2002.740 693 C 2087.704 693, 2091.221 692.927, 2094.790 691.092 C 2102.420 687.167, 2107 679.818, 2107 671.500 C 2107 663.182, 2102.420 655.833, 2094.790 651.908 C 2091.221 650.073, 2087.704 650, 2002.740 650 C 1935.364 650, 1914.115 650.285, 1913.200 651.200 M 928.200 719.200 C 927.348 720.052, 927 726.089, 927 740 C 927 753.911, 927.348 759.948, 928.200 760.800 C 929.895 762.495, 968.105 762.495, 969.800 760.800 C 971.495 759.105, 971.495 720.895, 969.800 719.200 C 968.948 718.348, 962.911 718, 949 718 C 935.089 718, 929.052 718.348, 928.200 719.200 M 2064.200 719.200 C 2063.348 720.052, 2063 726.089, 2063 740 C 2063 753.911, 2063.348 759.948, 2064.200 760.800 C 2065.895 762.495, 2104.105 762.495, 2105.800 760.800 C 2106.652 759.948, 2107 753.911, 2107 740 C 2107 726.089, 2106.652 720.052, 2105.800 719.200 C 2104.948 718.348, 2098.911 718, 2085 718 C 2071.089 718, 2065.052 718.348, 2064.200 719.200" stroke="none" fill="#2ba3ab" fill-rule="evenodd"/></svg>