 <svg xmlns="http://www.w3.org/2000/svg" class="size-full" viewBox="0 0 110 110" version="1.1"><path d="M 45 28.500 C 45 39.225, 44.641 48, 44.202 48 C 43.763 48, 40.932 45.637, 37.911 42.750 C 34.891 39.862, 30.480 34.924, 28.109 31.776 C 23.893 26.177, 23.742 26.083, 21.150 27.450 C 19.692 28.219, 17.625 29.503, 16.555 30.303 C 14.705 31.687, 15.170 32.355, 26.055 43.951 C 32.350 50.658, 37.635 56.733, 37.800 57.453 C 38 58.324, 33.343 60.388, 23.862 63.631 C 16.031 66.309, 9.468 68.994, 9.279 69.599 C 9.089 70.203, 9.791 71.755, 10.838 73.048 C 12.741 75.399, 12.741 75.399, 23.621 71.688 C 29.604 69.647, 35.344 67.982, 36.375 67.988 C 37.956 67.998, 38.148 68.510, 37.601 71.250 C 37.244 73.037, 35.657 77.268, 34.075 80.651 C 32.492 84.034, 29.447 88.553, 27.307 90.693 C 25.167 92.833, 21.237 95.608, 18.575 96.860 C 15.566 98.274, 14.089 99.489, 14.672 100.072 C 15.254 100.654, 17.669 100.398, 21.054 99.396 C 24.049 98.509, 27.789 97.118, 29.364 96.307 C 30.940 95.495, 34.141 93.067, 36.479 90.913 C 38.898 88.683, 41.851 84.495, 43.333 81.193 C 44.765 78.002, 46.244 72.716, 46.620 69.446 C 46.995 66.176, 47.797 63.169, 48.401 62.765 C 49.006 62.361, 50.625 62.024, 52 62.016 C 54.470 62.001, 54.501 62.107, 54.600 70.750 C 54.658 75.811, 55.433 82.011, 56.438 85.455 C 57.648 89.605, 59.326 92.561, 61.970 95.205 C 65.765 99, 65.765 99, 83.450 99 C 101.135 99, 101.135 99, 100.462 96.750 C 100.093 95.513, 99.050 93.198, 98.145 91.606 C 97.240 90.014, 95.686 88.214, 94.691 87.606 C 93.245 86.721, 92.594 86.889, 91.441 88.441 C 90.649 89.509, 90 91.421, 90 92.691 C 90 94.921, 89.710 95, 81.547 95 C 76.898 95, 71.912 94.461, 70.467 93.803 C 69.022 93.145, 66.889 90.782, 65.727 88.553 C 63.973 85.189, 63.542 82.248, 63.191 71.250 C 62.959 63.962, 63.158 57.995, 63.634 57.989 C 64.110 57.983, 70.770 57.313, 78.434 56.500 C 87.105 55.580, 92.671 54.545, 93.169 53.761 C 93.609 53.067, 93.969 52.275, 93.969 52 C 93.969 51.725, 93.585 50.894, 93.115 50.152 C 92.402 49.027, 90.380 49.073, 80.881 50.426 C 74.621 51.318, 68.150 52.321, 66.500 52.654 C 63.746 53.211, 64.134 52.596, 71.224 45.169 C 75.472 40.718, 80.984 34.310, 83.474 30.928 C 85.963 27.547, 88 24.194, 88 23.478 C 88 22.734, 86.255 21.881, 83.933 21.489 C 81.696 21.111, 79.762 20.959, 79.636 21.151 C 79.510 21.343, 74.252 28.448, 67.953 36.939 C 56.500 52.379, 56.500 52.379, 56.230 30.689 C 55.961 9, 55.961 9, 50.480 9 C 45 9, 45 9, 45 28.500" stroke="none" fill="white" fill-rule="evenodd"/></svg>