<svg xmlns="http://www.w3.org/2000/svg" class="size-full" viewBox="0 0 374 326" version="1.1"><path d="M 229.278 27.250 C 228.746 27.938, 228.030 29.288, 227.687 30.250 C 227.344 31.212, 226.429 32, 225.654 32 C 224.879 32, 223.685 31.325, 223 30.500 C 222.315 29.675, 220.936 29, 219.935 29 C 218.933 29, 216.484 29.962, 214.492 31.137 C 211.051 33.167, 210.904 33.471, 211.538 37.222 C 212.205 41.171, 212.205 41.171, 208.852 40.984 C 207.009 40.881, 204.932 40.843, 204.237 40.899 C 203.542 40.954, 201.994 43.017, 200.796 45.482 C 198.618 49.965, 198.618 49.965, 200.809 52.297 C 202.014 53.580, 203 55.128, 203 55.737 C 203 56.346, 201.440 57.360, 199.533 57.989 C 196.688 58.928, 195.947 59.763, 195.407 62.643 C 195.045 64.574, 195.226 67.202, 195.810 68.483 C 196.440 69.866, 198.117 71.086, 199.936 71.486 C 201.621 71.856, 203 72.728, 203 73.424 C 203 74.121, 202.100 75.505, 201 76.500 C 199.900 77.495, 199 78.890, 199 79.598 C 199 80.306, 199.944 82.486, 201.099 84.443 C 202.253 86.399, 203.716 88.046, 204.349 88.101 C 204.982 88.157, 206.973 88.122, 208.774 88.023 C 212.044 87.843, 212.048 87.848, 211.422 91.762 C 210.829 95.471, 210.992 95.797, 214.455 97.841 C 216.468 99.028, 218.841 100, 219.728 100 C 220.616 100, 222.149 99.270, 223.134 98.379 C 224.119 97.487, 225.617 97.023, 226.463 97.347 C 227.308 97.672, 228 98.796, 228 99.846 C 228 100.896, 228.640 102.286, 229.422 102.936 C 230.216 103.594, 232.963 103.980, 235.640 103.808 C 240.094 103.522, 240.501 103.269, 241.362 100.250 C 241.893 98.391, 242.949 97, 243.830 97 C 244.678 97, 246.374 97.942, 247.599 99.093 C 249.827 101.186, 249.827 101.186, 254.516 98.438 C 259.099 95.752, 259.192 95.600, 258.580 91.775 C 257.954 87.860, 257.954 87.860, 262.226 88.180 C 266.401 88.493, 266.553 88.394, 268.977 83.808 C 271.457 79.115, 271.457 79.115, 269.228 76.743 C 268.003 75.439, 267 73.903, 267 73.330 C 267 72.758, 268.462 71.872, 270.250 71.362 C 273.326 70.484, 273.516 70.154, 273.803 65.188 C 274.102 60.022, 274.052 59.920, 270.553 58.458 C 268.599 57.641, 267 56.446, 267 55.801 C 267 55.156, 267.994 53.571, 269.208 52.279 C 271.416 49.928, 271.416 49.928, 269.458 46.288 C 268.381 44.285, 266.922 42.068, 266.216 41.361 C 265.293 40.437, 264.221 40.346, 262.401 41.038 C 261.009 41.567, 259.392 42, 258.807 42 C 258.128 42, 257.974 40.561, 258.382 38.013 C 258.990 34.213, 258.826 33.887, 254.895 31.039 C 251.700 28.724, 250.360 28.272, 248.941 29.031 C 247.935 29.570, 246.835 30.458, 246.497 31.005 C 246.159 31.552, 245.107 32, 244.160 32 C 243.165 32, 241.960 30.733, 241.306 29 C 240.257 26.222, 239.807 26, 235.209 26 C 232.420 26, 229.821 26.548, 229.278 27.250 M 231 56.234 C 231 56.720, 230.610 56.877, 230.134 56.583 C 229.657 56.288, 228.420 56.984, 227.384 58.129 C 226.348 59.273, 225.613 60.388, 225.750 60.605 C 225.887 60.822, 225.955 61.225, 225.900 61.500 C 225.845 61.775, 225.755 63.022, 225.700 64.272 C 225.645 65.521, 225.942 67.096, 226.359 67.772 C 226.776 68.447, 226.797 69, 226.404 69 C 226.011 69, 226.495 69.889, 227.479 70.976 C 228.462 72.063, 229.657 72.712, 230.134 72.417 C 230.610 72.123, 231 72.246, 231 72.691 C 231 73.136, 232.653 73.500, 234.673 73.500 C 237.287 73.500, 239.089 72.757, 240.923 70.923 C 242.808 69.038, 243.500 67.303, 243.500 64.462 C 243.500 61.945, 242.796 59.837, 241.500 58.474 C 240.400 57.317, 239.162 56.539, 238.750 56.745 C 238.338 56.950, 237.999 56.754, 237.997 56.309 C 237.995 55.864, 236.420 55.466, 234.497 55.425 C 232.574 55.384, 231 55.748, 231 56.234 M 241.500 58 C 241.840 58.550, 242.343 59, 242.618 59 C 242.893 59, 242.840 58.550, 242.500 58 C 242.160 57.450, 241.657 57, 241.382 57 C 241.107 57, 241.160 57.450, 241.500 58 M 240.872 71.750 C 239.629 73.336, 239.664 73.371, 241.250 72.128 C 242.213 71.373, 243 70.585, 243 70.378 C 243 70.170, 242.830 70, 242.622 70 C 242.415 70, 241.627 70.787, 240.872 71.750 M 303.661 240.947 C 303.325 242.626, 302.433 244, 301.680 244 C 300.926 244, 299.509 243.114, 298.529 242.032 C 297.130 240.486, 296.333 240.287, 294.810 241.102 C 293.302 241.909, 293.013 242.784, 293.510 245.045 C 293.861 246.643, 293.888 248.372, 293.570 248.887 C 293.220 249.453, 291.776 249.364, 289.915 248.662 C 287.234 247.650, 286.656 247.750, 285.421 249.438 C 284.170 251.150, 284.237 251.624, 286.002 253.502 C 287.101 254.672, 288 256.118, 288 256.717 C 288 257.315, 286.650 258.275, 285 258.850 C 282.990 259.551, 282 260.569, 282 261.935 C 282 263.319, 283.123 264.442, 285.500 265.436 C 287.425 266.240, 289 267.229, 289 267.635 C 289 268.040, 288.087 269.343, 286.972 270.530 C 285.736 271.845, 285.196 273.347, 285.590 274.373 C 286.062 275.605, 287.211 275.982, 289.868 275.779 C 293.472 275.502, 293.498 275.529, 293.286 279.194 C 293.116 282.145, 293.485 283.019, 295.121 283.539 C 296.497 283.975, 297.915 283.489, 299.435 282.061 C 301.232 280.373, 301.915 280.199, 302.742 281.217 C 303.316 281.923, 303.952 283.400, 304.156 284.500 C 304.409 285.861, 305.318 286.500, 307 286.500 C 308.682 286.500, 309.591 285.861, 309.844 284.500 C 310.048 283.400, 310.684 281.923, 311.258 281.217 C 312.085 280.199, 312.768 280.373, 314.565 282.061 C 316.106 283.509, 317.497 283.977, 318.916 283.527 C 320.725 282.953, 320.918 282.337, 320.368 278.899 C 319.734 274.934, 319.734 274.934, 323.720 275.571 C 326.970 276.091, 327.831 275.884, 328.381 274.449 C 328.810 273.333, 328.315 271.899, 327.028 270.530 C 325.913 269.343, 325 268.040, 325 267.635 C 325 267.229, 326.575 266.240, 328.500 265.436 C 330.855 264.451, 332 263.315, 332 261.962 C 332 260.523, 331.139 259.778, 328.979 259.346 C 327.318 259.014, 325.696 258.316, 325.374 257.797 C 325.053 257.277, 325.835 255.740, 327.112 254.381 C 328.959 252.415, 329.207 251.562, 328.328 250.205 C 327.720 249.267, 326.610 248.555, 325.862 248.623 C 325.113 248.690, 323.600 248.915, 322.500 249.123 C 320.786 249.446, 320.500 248.959, 320.500 245.722 C 320.500 243.464, 319.903 241.572, 319.015 241.018 C 317.971 240.366, 316.875 240.708, 315.316 242.173 C 314.098 243.317, 312.439 243.999, 311.628 243.688 C 310.818 243.377, 310.008 242.082, 309.828 240.811 C 309.595 239.170, 308.742 238.412, 306.886 238.197 C 304.675 237.940, 304.177 238.365, 303.661 240.947 M 302.388 251.980 C 301.227 252.449, 299.270 254.108, 298.040 255.667 C 296.220 257.972, 295.889 259.401, 296.263 263.333 C 296.549 266.347, 297.472 268.917, 298.714 270.159 C 299.810 271.255, 302.564 272.400, 304.834 272.705 C 307.202 273.022, 310.270 272.717, 312.028 271.988 C 313.715 271.290, 315.748 269.454, 316.547 267.909 C 317.346 266.364, 317.990 263.389, 317.978 261.300 C 317.966 259.210, 317.178 256.540, 316.228 255.367 C 315.277 254.194, 313.517 252.731, 312.316 252.117 C 311.114 251.503, 308.864 251.029, 307.316 251.063 C 305.767 251.098, 303.550 251.511, 302.388 251.980" stroke="none" fill="white" fill-rule="evenodd"/><path d="M 174.988 10.250 C 174.455 11.488, 173.091 16.763, 171.957 21.973 C 170.824 27.183, 169.357 31.789, 168.698 32.208 C 168.039 32.627, 166.331 32.976, 164.902 32.985 C 162.920 32.996, 160.383 30.949, 154.203 24.352 C 146.375 15.995, 146.024 15.753, 143.801 17.186 C 142.535 18.001, 138.505 20.333, 134.845 22.367 C 131.185 24.401, 127.645 26.723, 126.978 27.526 C 126.010 28.692, 126.435 31.307, 129.089 40.510 C 132.411 52.033, 132.411 52.033, 130.367 54.077 C 128.323 56.121, 128.323 56.121, 119.292 53.582 C 114.325 52.186, 108.773 50.921, 106.953 50.772 C 104.075 50.535, 103.299 51.020, 100.984 54.500 C 99.521 56.700, 96.859 61.103, 95.069 64.284 C 91.814 70.068, 91.814 70.068, 100.407 78.849 C 105.270 83.819, 108.993 88.470, 108.985 89.565 C 108.976 90.629, 108.639 91.985, 108.235 92.577 C 107.831 93.169, 102.612 94.939, 96.639 96.510 C 90.665 98.080, 85.152 99.990, 84.389 100.754 C 83.380 101.762, 83 105.014, 83 112.622 C 83 123.102, 83 123.102, 86.250 124.424 C 88.038 125.151, 93.655 126.769, 98.732 128.020 C 107.882 130.275, 107.971 130.326, 108.612 133.747 C 109.231 137.043, 108.870 137.591, 100.634 145.866 C 92.008 154.532, 92.008 154.532, 97.252 163.777 C 100.136 168.862, 103.172 173.237, 103.998 173.499 C 104.824 173.761, 110.654 172.622, 116.954 170.969 C 128.327 167.985, 128.422 167.977, 130.366 169.922 C 132.311 171.866, 132.301 171.958, 129.009 182.821 C 127.186 188.838, 125.942 194.407, 126.246 195.197 C 126.549 195.988, 130.838 198.966, 135.777 201.817 C 140.717 204.668, 145.451 207, 146.298 207 C 147.145 207, 151.088 203.400, 155.061 199 C 160.740 192.711, 162.870 191, 165.020 191 C 166.524 191, 168.210 191.563, 168.765 192.250 C 169.320 192.938, 170.789 198, 172.028 203.500 C 173.268 209, 174.963 214.287, 175.796 215.250 C 177.055 216.705, 179.043 217, 187.584 217 C 194.980 217, 198.243 216.614, 199.236 215.621 C 199.994 214.863, 201.655 209.351, 202.927 203.371 C 204.199 197.392, 205.748 192.169, 206.370 191.765 C 206.991 191.361, 208.616 191.024, 209.980 191.015 C 211.770 191.004, 214.875 193.403, 221.129 199.628 C 229.797 208.257, 229.797 208.257, 238.810 203.055 C 243.767 200.195, 248.519 197.084, 249.372 196.142 C 250.780 194.585, 250.596 193.411, 247.351 183.222 C 245.387 177.057, 244.045 171.325, 244.368 170.484 C 244.691 169.643, 245.631 168.695, 246.458 168.378 C 247.285 168.061, 253.032 169.352, 259.231 171.247 C 265.429 173.143, 271.087 174.480, 271.805 174.218 C 272.523 173.957, 275.392 169.198, 278.180 163.642 C 283.249 153.541, 283.249 153.541, 274.602 145.520 C 267.923 139.326, 265.960 136.902, 265.977 134.872 C 265.990 133.427, 266.563 131.794, 267.250 131.243 C 267.938 130.691, 272.775 129.254, 278 128.049 C 283.225 126.843, 288.512 125.204, 289.750 124.405 C 291.832 123.063, 291.999 122.226, 291.985 113.227 C 291.976 107.877, 291.601 102.920, 291.152 102.211 C 290.702 101.502, 285.044 99.308, 278.579 97.335 C 268.077 94.129, 266.663 93.909, 265.309 95.262 C 263.955 96.616, 263.964 97.366, 265.397 102.293 C 266.279 105.326, 267 108.032, 267 108.305 C 267 108.579, 265.399 109.747, 263.443 110.901 C 261.486 112.056, 259.103 113, 258.146 113 C 257.189 113, 254.648 111.200, 252.500 109 C 250.352 106.800, 247.841 105, 246.919 105 C 245.998 105, 244.751 105.595, 244.147 106.322 C 243.544 107.050, 242.427 110.087, 241.667 113.072 C 240.292 118.467, 240.257 118.503, 235.936 119 C 231.604 119.498, 231.582 119.522, 229.275 125.980 C 228.002 129.545, 225.894 134.074, 224.589 136.045 C 223.284 138.016, 220.706 141.142, 218.859 142.992 C 217.011 144.842, 213.475 147.644, 211 149.219 C 208.525 150.794, 203.409 153.025, 199.631 154.175 C 194.134 155.849, 191.138 156.160, 184.631 155.730 C 179.867 155.415, 174.189 154.294, 170.919 153.022 C 167.850 151.828, 163.135 149.187, 160.443 147.152 C 157.751 145.117, 153.926 141.306, 151.944 138.684 C 149.962 136.061, 147.255 130.897, 145.928 127.208 C 144.001 121.849, 143.538 118.689, 143.627 111.500 C 143.706 105.140, 144.347 100.818, 145.810 96.767 C 146.949 93.614, 149.219 89.088, 150.856 86.710 C 152.492 84.331, 155.716 80.682, 158.020 78.601 C 160.324 76.519, 164.975 73.508, 168.355 71.909 C 171.735 70.310, 175.218 69.001, 176.095 69.001 C 176.972 69, 178.435 68.177, 179.345 67.171 C 180.255 66.165, 181 63.955, 181 62.258 C 181 59.340, 181.337 59.073, 187.250 57.311 C 192.383 55.782, 193.560 55.029, 193.836 53.100 C 194.077 51.414, 192.953 49.508, 189.852 46.349 C 185.532 41.947, 185.532 41.947, 187.905 37.473 C 189.210 35.013, 190.778 33.005, 191.389 33.012 C 192 33.018, 194.836 33.646, 197.691 34.406 C 202.362 35.649, 203.033 35.621, 204.392 34.120 C 205.744 32.626, 205.638 31.408, 203.383 22.476 C 201.997 16.989, 200.209 11.488, 199.409 10.250 C 198.045 8.141, 197.263 8, 186.956 8 C 176.504 8, 175.909 8.112, 174.988 10.250 M 282.096 245.250 C 281.626 246.488, 281.075 248.352, 280.871 249.393 C 280.667 250.434, 279.726 251.773, 278.780 252.368 C 277.383 253.248, 276.394 252.805, 273.508 250.008 C 270.009 246.617, 269.913 246.590, 267.228 248.248 C 265.252 249.467, 264.609 250.561, 264.895 252.216 C 265.113 253.472, 265.338 255.850, 265.395 257.500 C 265.490 260.212, 265.212 260.490, 262.500 260.395 C 260.850 260.338, 258.407 260.113, 257.072 259.895 C 255.251 259.599, 254.255 260.178, 253.088 262.211 C 251.583 264.836, 251.644 265.038, 254.992 268.492 C 257.732 271.319, 258.235 272.403, 257.412 273.708 C 256.841 274.614, 254.602 275.849, 252.437 276.454 C 248.885 277.445, 248.470 277.904, 248.198 281.144 C 247.902 284.649, 248.007 284.764, 252.488 285.893 C 255.015 286.529, 257.348 287.743, 257.673 288.591 C 258.035 289.535, 257.013 291.423, 255.033 293.466 C 252.708 295.865, 251.981 297.363, 252.440 298.810 C 252.790 299.915, 253.640 301.286, 254.328 301.857 C 255.193 302.575, 256.894 302.560, 259.851 301.810 C 263.002 301.010, 264.425 301.025, 265.268 301.868 C 266.125 302.725, 266.118 304.072, 265.241 307.255 C 264.177 311.116, 264.259 311.658, 266.146 313.250 C 267.288 314.212, 268.853 315, 269.625 315 C 270.397 315, 272.288 313.590, 273.829 311.866 C 276.234 309.174, 276.925 308.890, 278.725 309.853 C 280.074 310.575, 281.061 312.402, 281.498 314.987 C 282.150 318.847, 282.321 319, 285.969 319 C 289.616 319, 289.805 318.831, 290.867 314.612 C 291.477 312.193, 292.727 309.935, 293.654 309.579 C 294.771 309.151, 296.438 310.002, 298.614 312.111 C 301.714 315.115, 302.063 315.217, 305.039 313.984 C 307.894 312.801, 308.119 312.393, 307.464 309.590 C 307.067 307.891, 306.687 305.375, 306.621 304 C 306.522 301.952, 306.952 301.512, 309 301.567 C 310.375 301.604, 312.850 301.947, 314.500 302.330 C 317.113 302.936, 317.713 302.649, 319.151 300.105 C 320.758 297.260, 320.731 297.116, 318.096 294.592 C 315.671 292.269, 314.605 292, 307.818 292 C 301.983 292, 299.930 292.381, 298.872 293.658 C 298.118 294.571, 295.700 296.136, 293.500 297.137 C 291.300 298.137, 287.955 298.966, 286.066 298.978 C 284.177 298.990, 280.645 298.039, 278.218 296.863 C 275.791 295.688, 272.942 293.326, 271.887 291.613 C 270.832 289.901, 269.483 286.907, 268.889 284.960 C 268.105 282.390, 268.121 280.264, 268.947 277.197 C 269.572 274.874, 271.413 271.460, 273.037 269.610 C 274.662 267.760, 277.343 265.686, 278.995 265.002 C 280.868 264.226, 282 263.030, 282 261.827 C 282 260.581, 283.064 259.525, 285 258.850 C 286.650 258.275, 288 257.243, 288 256.557 C 288 255.871, 287.114 254.509, 286.032 253.529 C 284.470 252.116, 284.282 251.341, 285.121 249.774 C 285.874 248.366, 286.892 247.937, 288.673 248.278 C 290.820 248.688, 291.089 248.458, 290.598 246.627 C 290.284 245.457, 290.021 244.162, 290.014 243.750 C 290.006 243.338, 288.414 243, 286.475 243 C 283.740 243, 282.759 243.504, 282.096 245.250 M 101.133 247 C 94.767 247.500, 94.767 247.500, 87.552 271 C 83.585 283.925, 80.100 295.175, 79.808 296 C 79.516 296.825, 75.584 286.137, 71.069 272.250 C 62.861 247, 62.861 247, 57.031 247 C 51.200 247, 51.200 247, 45.501 264.717 C 42.366 274.461, 38.904 285.373, 37.807 288.967 C 36.710 292.560, 35.508 295.824, 35.136 296.221 C 34.763 296.617, 31.093 285.708, 26.979 271.978 C 19.500 247.014, 19.500 247.014, 12.683 247.007 C 6.067 247, 5.886 247.067, 6.576 249.250 C 6.968 250.488, 11.948 266.023, 17.644 283.773 C 23.340 301.524, 28 316.261, 28 316.523 C 28 316.786, 30.898 317, 34.441 317 C 37.984 317, 41.116 316.621, 41.403 316.158 C 41.689 315.694, 45.144 305.232, 49.081 292.908 C 53.018 280.583, 56.523 270.188, 56.869 269.808 C 57.216 269.427, 60.889 279.777, 65.032 292.808 C 72.564 316.500, 72.564 316.500, 79.186 316.794 C 85.808 317.087, 85.808 317.087, 87.845 310.794 C 88.965 307.332, 93.989 291.767, 99.009 276.204 C 104.029 260.641, 107.993 247.591, 107.818 247.204 C 107.643 246.817, 104.635 246.725, 101.133 247 M 332.750 247.602 C 330.681 248.491, 329 249.922, 329 250.793 C 329 251.661, 328.053 253.379, 326.895 254.612 C 325.738 255.844, 325.053 257.277, 325.374 257.797 C 325.696 258.316, 327.318 259.014, 328.979 259.346 C 331.139 259.778, 332 260.523, 332 261.962 C 332 263.315, 330.855 264.451, 328.500 265.436 C 326.575 266.240, 325 267.229, 325 267.635 C 325 268.040, 325.913 269.343, 327.028 270.530 C 328.307 271.891, 328.809 273.335, 328.386 274.437 C 327.902 275.698, 326.914 276.068, 324.844 275.764 C 321.973 275.342, 321.973 275.342, 324.237 277.769 C 325.481 279.103, 328.075 280.989, 330 281.959 C 331.925 282.930, 337.299 284.977, 341.941 286.508 C 346.584 288.039, 351.448 290.357, 352.751 291.660 C 354.563 293.472, 355.046 294.905, 354.810 297.764 C 354.551 300.883, 353.922 301.799, 351 303.311 C 348.236 304.741, 345.819 305.039, 339.500 304.731 C 333.310 304.430, 330.312 303.733, 326.250 301.654 C 321 298.966, 321 298.966, 321 305.519 C 321 312.071, 321 312.071, 325.708 314.089 C 328.297 315.199, 333.384 316.480, 337.011 316.935 C 340.639 317.391, 345.894 317.402, 348.690 316.960 C 351.486 316.518, 355.598 315.225, 357.829 314.087 C 360.059 312.949, 363.113 310.407, 364.616 308.437 C 366.582 305.859, 367.474 303.328, 367.800 299.402 C 368.105 295.719, 367.698 292.499, 366.547 289.485 C 365.540 286.847, 363.149 283.571, 360.703 281.477 C 357.793 278.987, 353.761 277.058, 347.137 274.988 C 341.954 273.367, 336.652 271.347, 335.356 270.498 C 333.626 269.364, 333 268.026, 333 265.462 C 333 262.596, 333.582 261.616, 336.250 259.989 C 338.636 258.534, 341.227 258.018, 346 258.048 C 349.575 258.070, 354.300 258.773, 356.500 259.610 C 358.700 260.447, 361.288 261.379, 362.250 261.682 C 363.783 262.165, 364 261.492, 364 256.268 C 364 250.303, 364 250.303, 359.750 248.523 C 357.027 247.383, 352.087 246.607, 346 246.366 C 338.817 246.081, 335.586 246.382, 332.750 247.602 M 113.237 281.750 C 113.500 316.500, 113.500 316.500, 119.750 316.798 C 126 317.095, 126 317.095, 126 302.548 C 126 288, 126 288, 141 288 C 156 288, 156 288, 156 302.500 C 156 317, 156 317, 162 317 C 168 317, 168 317, 168 282 C 168 247, 168 247, 162.027 247 C 156.055 247, 156.055 247, 155.777 261.250 C 155.500 275.500, 155.500 275.500, 140.750 275.777 C 126 276.053, 126 276.053, 126 261.527 C 126 247, 126 247, 119.487 247 C 112.974 247, 112.974 247, 113.237 281.750 M 176 282 C 176 317, 176 317, 181.983 317 C 187.966 317, 187.966 317, 188.233 291.250 C 188.500 265.500, 188.500 265.500, 198.833 280.250 C 204.516 288.363, 209.506 295, 209.921 295 C 210.336 295, 215.136 288.497, 220.588 280.548 C 226.040 272.600, 230.725 266.075, 231 266.048 C 231.275 266.021, 231.500 277.362, 231.500 291.250 C 231.500 316.500, 231.500 316.500, 237.750 316.798 C 244 317.095, 244 317.095, 244 282.048 C 244 247, 244 247, 236.750 247.037 C 229.500 247.074, 229.500 247.074, 220 261.013 C 214.775 268.679, 210.261 274.963, 209.969 274.976 C 209.676 274.989, 205.045 268.700, 199.677 261 C 189.916 247, 189.916 247, 182.958 247 C 176 247, 176 247, 176 282 M 302.388 251.980 C 301.227 252.449, 299.314 254.057, 298.138 255.552 C 296.843 257.198, 296.003 259.695, 296.009 261.885 C 296.015 264.650, 296.853 266.382, 299.572 269.250 C 302.355 272.187, 303.882 273, 306.613 273 C 308.530 273, 311.339 272.359, 312.855 271.575 C 314.371 270.791, 316.148 268.970, 316.805 267.528 C 317.462 266.086, 318 263.528, 318 261.845 C 318 258.983, 317.821 258.834, 315.250 259.563 C 313.738 259.991, 311.150 260.378, 309.500 260.421 C 306.931 260.489, 306.509 260.141, 306.560 258 C 306.593 256.625, 306.960 254.488, 307.377 253.250 C 307.982 251.455, 307.767 251.013, 306.317 251.063 C 305.318 251.098, 303.550 251.511, 302.388 251.980" stroke="none" fill="white" fill-rule="evenodd"/></svg>