 <svg xmlns="http://www.w3.org/2000/svg" class="size-full" viewBox="0 0 400 440" version="1.1"><path d="" stroke="none" fill="white" fill-rule="evenodd"/><path d="M 67 6.478 C 67 6.770, 76.457 25.919, 88.015 49.031 C 109.031 91.052, 109.031 91.052, 124.133 90.776 C 139.235 90.500, 139.235 90.500, 160.076 49 C 171.539 26.175, 180.937 7.162, 180.959 6.750 C 180.982 6.338, 174.530 6, 166.621 6 C 152.243 6, 152.243 6, 142.481 27.750 C 137.112 39.712, 131.476 52.425, 129.956 56 C 128.437 59.575, 126.598 65.088, 125.870 68.250 C 125.141 71.412, 124.301 74, 124.001 74 C 123.702 74, 122.966 71.411, 122.364 68.247 C 121.751 65.021, 115.820 50.192, 108.865 34.497 C 96.459 6.500, 96.459 6.500, 81.730 6.223 C 73.628 6.071, 67 6.186, 67 6.478 M 191 17 C 191 28, 191 28, 206 28 C 221 28, 221 28, 221 17 C 221 6, 221 6, 206 6 C 191 6, 191 6, 191 17 M 281.324 32.381 C 279.027 33.131, 275.645 34.674, 273.807 35.810 C 271.969 36.946, 269.383 39.028, 268.059 40.438 C 266.735 41.847, 265.115 43, 264.460 43 C 263.804 43, 262.371 40.638, 261.275 37.750 C 259.282 32.500, 259.282 32.500, 247.141 32.219 C 235 31.938, 235 31.938, 235 80.969 C 235 128.508, 235.058 130, 236.904 130 C 237.951 130, 244.701 131.961, 251.904 134.357 C 265 138.714, 265 138.714, 264.940 128.607 C 264.908 123.048, 264.507 116.250, 264.050 113.500 C 263.594 110.750, 263.408 108.185, 263.638 107.801 C 263.868 107.416, 266.523 108.830, 269.540 110.943 C 272.615 113.097, 277.828 115.543, 281.409 116.513 C 286.195 117.808, 290.261 118.125, 297.647 117.777 C 304.685 117.446, 309.214 116.651, 313.500 114.994 C 317.841 113.316, 321.183 110.992, 325.588 106.588 C 329.997 102.178, 332.269 98.909, 333.832 94.728 C 335.018 91.554, 336.509 85.803, 337.146 81.948 C 338.005 76.746, 338.019 72.928, 337.199 67.135 C 336.592 62.843, 335.150 56.803, 333.994 53.714 C 332.823 50.583, 329.889 45.868, 327.364 43.060 C 324.404 39.768, 320.527 36.914, 316.168 34.818 C 309.979 31.843, 308.638 31.591, 297.500 31.315 C 289.331 31.112, 284.167 31.452, 281.324 32.381 M 194.223 40.515 C 190 49.029, 190 49.029, 190 71.015 C 190 93, 190 93, 205 93 C 220 93, 220 93, 220 62.500 C 220 32, 220 32, 209.223 32 C 198.446 32, 198.446 32, 194.223 40.515 M 281.429 49.059 C 278.640 49.432, 275.426 50.237, 274.287 50.846 C 273.148 51.456, 271.059 53.329, 269.646 55.009 C 268.233 56.688, 266.612 59.736, 266.044 61.781 C 265.476 63.826, 265.009 69.131, 265.006 73.568 C 265.003 78.006, 265.680 83.926, 266.511 86.724 C 267.512 90.095, 269.190 92.837, 271.483 94.851 C 273.387 96.523, 276.645 98.363, 278.723 98.940 C 280.800 99.517, 284.767 99.991, 287.538 99.994 C 290.786 99.998, 294.159 99.200, 297.030 97.750 C 299.480 96.513, 302.495 93.978, 303.731 92.118 C 304.968 90.257, 306.431 87.107, 306.984 85.118 C 307.537 83.128, 307.991 77.643, 307.994 72.929 C 307.999 65.556, 307.616 63.600, 305.250 58.929 C 303.237 54.956, 301.428 52.929, 298.500 51.370 C 296.300 50.199, 292.700 49.047, 290.500 48.811 C 288.300 48.574, 284.218 48.686, 281.429 49.059 M 178 109.671 C 176.625 109.901, 171.900 110.789, 167.500 111.645 C 163.100 112.501, 155.225 114.560, 150 116.219 C 144.775 117.879, 136.450 121.130, 131.500 123.445 C 126.550 125.759, 118.450 130.168, 113.500 133.242 C 108.550 136.317, 100.078 142.529, 94.673 147.047 C 89.268 151.565, 81.401 159.271, 77.189 164.171 C 72.978 169.071, 66.923 176.999, 63.735 181.790 C 60.546 186.580, 55.727 195, 53.025 200.500 C 50.323 206, 46.708 214.701, 44.993 219.836 C 43.277 224.970, 41.025 233.070, 39.986 237.836 C 38.948 242.601, 37.574 251.675, 36.933 258 C 36.291 264.325, 36.040 274.110, 36.373 279.745 C 36.707 285.380, 37.471 293.255, 38.072 297.245 C 38.672 301.235, 40.246 308.834, 41.569 314.132 C 42.892 319.429, 45.335 327.326, 46.998 331.680 C 48.660 336.033, 51.848 343.174, 54.081 347.548 C 56.314 351.922, 61.110 359.964, 64.737 365.419 C 68.413 370.947, 76.018 380.189, 81.917 386.297 C 87.738 392.324, 97.225 400.807, 103 405.149 C 108.900 409.585, 118.997 415.830, 126.049 419.406 C 132.951 422.906, 143.671 427.410, 149.871 429.414 C 156.072 431.419, 166.400 433.970, 172.822 435.084 C 181.258 436.547, 188.943 437.110, 200.500 437.110 C 212.166 437.110, 219.731 436.550, 228.431 435.041 C 234.993 433.903, 245.612 431.217, 252.030 429.071 C 258.448 426.925, 268.173 422.924, 273.641 420.180 C 279.110 417.436, 287.615 412.481, 292.542 409.170 C 297.469 405.859, 304.910 400.079, 309.077 396.325 C 313.244 392.571, 319.696 386.125, 323.416 382 C 327.135 377.875, 333.090 370.141, 336.650 364.813 C 340.210 359.485, 345.323 350.690, 348.011 345.269 C 350.700 339.848, 354.300 331.234, 356.011 326.127 C 357.722 321.020, 359.985 312.940, 361.041 308.171 C 362.097 303.402, 363.510 293.537, 364.181 286.250 C 365.141 275.822, 365.141 270.178, 364.181 259.750 C 363.510 252.462, 362.066 242.450, 360.974 237.500 C 359.881 232.550, 357.815 224.900, 356.381 220.500 C 354.948 216.100, 351.396 207.536, 348.490 201.468 C 345.583 195.401, 340.489 186.401, 337.171 181.468 C 333.853 176.536, 327.830 168.675, 323.786 164 C 319.742 159.325, 311.856 151.675, 306.262 147 C 300.669 142.325, 292.246 136.140, 287.546 133.256 C 279 128.012, 279 128.012, 279 137.330 C 279 146.647, 279 146.647, 285.750 151.336 C 289.462 153.915, 294.277 157.557, 296.449 159.430 C 300.399 162.835, 300.399 162.835, 296.449 163.484 C 294.277 163.842, 290.825 164.842, 288.777 165.707 C 286.729 166.572, 283.497 168.837, 281.593 170.740 C 279.690 172.643, 277.315 175.843, 276.316 177.850 C 274.966 180.563, 274.500 183.810, 274.500 190.500 C 274.500 198.581, 274.832 200.201, 277.753 206.369 C 279.542 210.147, 283.009 216.452, 285.457 220.379 C 287.905 224.306, 291.315 230.623, 293.035 234.416 C 294.755 238.210, 297.025 244.690, 298.081 248.817 C 299.253 253.401, 300 259.716, 300 265.049 C 300 269.851, 299.295 277.541, 298.432 282.140 C 297.570 286.738, 294.039 299.050, 290.586 309.500 C 287.133 319.950, 282.111 336.038, 279.427 345.250 C 276.742 354.462, 274.308 362, 274.018 362 C 273.728 362, 261.680 326.559, 247.245 283.243 C 232.810 239.927, 221 204.185, 221 203.818 C 221 203.451, 225.113 202.828, 230.140 202.435 C 237.048 201.895, 239.734 201.266, 241.140 199.860 C 242.163 198.837, 243 196.945, 243 195.655 C 243 194.365, 242.144 192.535, 241.098 191.589 C 239.345 190.002, 237.568 189.951, 218.348 190.937 C 203.360 191.706, 191.609 191.697, 176.539 190.905 C 155.579 189.802, 155.579 189.802, 153.789 192.012 C 152.805 193.227, 152 194.986, 152 195.920 C 152 196.854, 152.618 198.462, 153.372 199.495 C 154.421 200.929, 156.922 201.623, 163.968 202.436 C 173.192 203.500, 173.192 203.500, 184.676 235.259 C 196.161 267.018, 196.161 267.018, 180.455 314.259 C 171.817 340.242, 164.407 361.877, 163.988 362.338 C 163.568 362.798, 151.408 327.698, 136.965 284.338 C 122.522 240.977, 110.513 204.974, 110.277 204.331 C 109.981 203.523, 112.696 202.939, 119.064 202.441 C 126.042 201.895, 128.732 201.268, 130.140 199.860 C 131.163 198.837, 132 196.907, 132 195.571 C 132 194.236, 131.240 192.383, 130.312 191.455 C 128.858 190.001, 127.163 189.851, 118.062 190.371 C 112.253 190.703, 101.375 191.262, 93.889 191.615 C 85.981 191.987, 79.578 191.863, 78.607 191.320 C 77.149 190.504, 77.599 189.495, 82.118 183.442 C 84.969 179.624, 91.637 172.225, 96.935 167 C 102.234 161.775, 110.603 154.643, 115.534 151.151 C 120.465 147.660, 129.450 142.406, 135.500 139.477 C 141.550 136.547, 150.053 132.987, 154.396 131.564 C 158.739 130.142, 166.839 128.049, 172.396 126.912 C 177.953 125.776, 188.125 124.613, 195 124.329 C 201.875 124.045, 210.779 124.226, 214.788 124.730 C 222.075 125.647, 222.075 125.647, 221.788 117.574 C 221.500 109.500, 221.500 109.500, 201 109.376 C 189.725 109.308, 179.375 109.441, 178 109.671 M 331.149 215.500 C 331.150 222.650, 330.644 231.650, 330.026 235.500 C 329.409 239.350, 328.261 244.975, 327.476 248 C 326.690 251.025, 314.584 286.560, 300.573 326.966 C 286.562 367.372, 275.242 400.575, 275.416 400.749 C 275.590 400.924, 279.056 398.838, 283.117 396.114 C 287.177 393.391, 293.913 388.231, 298.085 384.648 C 302.257 381.065, 308.838 374.391, 312.710 369.817 C 316.582 365.242, 322.094 357.900, 324.960 353.500 C 327.826 349.100, 331.886 341.900, 333.981 337.500 C 336.077 333.100, 339.186 325.535, 340.889 320.688 C 342.593 315.842, 344.973 307.292, 346.178 301.688 C 347.974 293.338, 348.377 288.163, 348.410 273 C 348.440 259.137, 348.005 252.283, 346.675 245.654 C 345.698 240.789, 343.389 232.197, 341.543 226.562 C 339.697 220.927, 336.603 213.207, 334.668 209.408 C 331.149 202.500, 331.149 202.500, 331.149 215.500 M 63.036 217.500 C 61.834 220.250, 59.773 226.219, 58.454 230.764 C 57.135 235.310, 55.303 243.185, 54.383 248.264 C 53.298 254.251, 52.701 262.953, 52.686 273 C 52.667 284.958, 53.164 291.066, 54.857 299.728 C 56.064 305.903, 58.648 315.540, 60.598 321.143 C 62.548 326.747, 65.872 334.768, 67.984 338.969 C 70.096 343.170, 74.634 350.806, 78.067 355.939 C 81.500 361.072, 88.609 369.751, 93.864 375.226 C 99.119 380.701, 107.121 387.959, 111.646 391.355 C 116.170 394.751, 123.304 399.482, 127.499 401.869 C 131.694 404.255, 135.280 406.049, 135.469 405.854 C 135.657 405.659, 120.334 362.975, 101.418 311 C 82.501 259.025, 66.618 215.600, 66.122 214.500 C 65.332 212.747, 64.950 213.119, 63.036 217.500 M 202.249 288 C 201.705 289.375, 191.708 318.334, 180.033 352.353 C 167.503 388.863, 159.173 414.573, 159.702 415.102 C 160.196 415.596, 164.627 416.927, 169.550 418.061 C 175.807 419.502, 183.650 420.294, 195.616 420.694 C 209.233 421.149, 214.854 420.912, 223.116 419.537 C 228.827 418.586, 237.147 416.613, 241.604 415.154 C 249.708 412.500, 249.708 412.500, 227.372 351.500 C 215.088 317.950, 204.632 289.375, 204.138 288 C 203.238 285.500, 203.238 285.500, 202.249 288" stroke="none" fill="white" fill-rule="evenodd"/></svg>