<svg xmlns="http://www.w3.org/2000/svg" class="size-full" viewBox="0 0 240 240" version="1.1"><path d="M 151 12.500 C 151 12.775, 151.225 13, 151.500 13 C 151.775 13, 152 12.775, 152 12.500 C 152 12.225, 151.775 12, 151.500 12 C 151.225 12, 151 12.225, 151 12.500 M 50.236 71.794 C 50.494 72.780, 52.459 76.334, 54.602 79.691 C 56.873 83.247, 60.642 87.354, 63.633 89.532 C 66.456 91.588, 71.631 94.483, 75.133 95.966 C 78.635 97.449, 85.325 99.409, 90 100.321 C 95.596 101.413, 108.446 102.322, 127.606 102.981 C 149.583 103.737, 157.605 104.355, 160.356 105.504 C 163.039 106.625, 164 107.629, 164 109.310 C 164 110.566, 163.212 112.627, 162.250 113.890 C 161.287 115.153, 157.020 119.857, 152.766 124.343 C 148.513 128.829, 145.025 132.769, 145.016 133.097 C 145.007 133.425, 144.100 134.732, 143 136 C 141.900 137.268, 141 138.886, 141 139.594 C 141 140.302, 141.476 141.176, 142.057 141.536 C 142.639 141.895, 146.127 139.526, 149.807 136.270 C 153.488 133.015, 157.400 129.627, 158.500 128.740 C 159.600 127.854, 163.403 124.738, 166.951 121.815 C 170.498 118.892, 174.514 115.389, 175.875 114.030 C 177.236 112.672, 179.845 109.600, 181.675 107.203 C 183.579 104.709, 185 101.672, 185 100.098 C 185 98.517, 184.044 96.484, 182.750 95.313 C 181.512 94.193, 178.925 92.717, 177 92.032 C 174.700 91.213, 162.018 90.480, 140 89.893 C 121.575 89.402, 102.225 88.547, 97 87.994 C 91.775 87.440, 85.025 86.550, 82 86.015 C 78.975 85.480, 72.900 83.268, 68.500 81.100 C 64.100 78.932, 58.949 75.548, 57.054 73.579 C 55.158 71.611, 52.743 70, 51.687 70 C 50.333 70, 49.905 70.529, 50.236 71.794 M 77.765 153.042 C 75.309 155.066, 73.857 157.246, 73.423 159.559 C 73.043 161.586, 73.290 164.287, 74.018 166.043 C 74.703 167.698, 76.512 169.940, 78.036 171.026 C 79.703 172.212, 82.429 173, 84.871 173 C 88.188 173, 89.582 172.351, 92.467 169.467 C 95.358 166.576, 96 165.191, 96 161.849 C 96 158.438, 95.360 157.125, 92.118 153.882 C 89.135 150.900, 87.450 150, 84.845 150 C 82.544 150, 80.271 150.977, 77.765 153.042 M 121.314 151.950 C 119.561 153.019, 117.649 154.787, 117.064 155.881 C 116.479 156.974, 116 159.516, 116 161.530 C 116 163.544, 116.749 166.460, 117.665 168.010 C 118.581 169.561, 120.402 171.318, 121.712 171.915 C 123.022 172.512, 125.760 172.985, 127.797 172.967 C 129.834 172.948, 132.446 172.142, 133.603 171.175 C 134.760 170.208, 136.267 168.369, 136.953 167.087 C 137.639 165.806, 138.200 163.292, 138.200 161.500 C 138.200 159.708, 137.676 157.264, 137.036 156.068 C 136.396 154.872, 134.439 153.019, 132.686 151.950 C 130.934 150.882, 128.375 150.007, 127 150.007 C 125.625 150.007, 123.066 150.882, 121.314 151.950 M 192 198.500 C 192 198.775, 192.225 199, 192.500 199 C 192.775 199, 193 198.775, 193 198.500 C 193 198.225, 192.775 198, 192.500 198 C 192.225 198, 192 198.225, 192 198.500 M 82 227.500 C 82 227.775, 82.225 228, 82.500 228 C 82.775 228, 83 227.775, 83 227.500 C 83 227.225, 82.775 227, 82.500 227 C 82.225 227, 82 227.225, 82 227.500" stroke="none" fill="white" fill-rule="evenodd"/></svg>