<svg xmlns="http://www.w3.org/2000/svg" class="size-full" viewBox="0 0 790 866" version="1.1"><path d="M 383.500 6.607 C 381.300 6.822, 375.900 7.472, 371.500 8.051 C 367.100 8.631, 359.357 10.215, 354.292 11.572 C 349.228 12.929, 341.578 15.549, 337.292 17.394 C 333.007 19.238, 271.225 54.386, 200 95.500 C 128.775 136.613, 69.150 171.178, 67.500 172.311 C 65.850 173.444, 61.009 177.286, 56.742 180.849 C 52.475 184.412, 45.758 191.191, 41.817 195.913 C 37.876 200.636, 32.434 207.875, 29.726 212 C 27.017 216.125, 22.412 224.450, 19.493 230.500 C 16.573 236.550, 12.849 245.775, 11.216 251 C 9.583 256.225, 7.629 263.650, 6.873 267.500 C 5.744 273.256, 5.500 302.672, 5.500 433 C 5.500 582.352, 5.605 591.991, 7.316 600 C 8.314 604.675, 10.468 612.510, 12.101 617.412 C 13.734 622.314, 17.066 630.481, 19.505 635.563 C 21.943 640.644, 27.191 649.684, 31.166 655.651 C 35.917 662.784, 42.178 670.302, 49.446 677.603 C 55.526 683.709, 63.200 690.499, 66.500 692.691 C 69.800 694.883, 84.650 703.677, 99.500 712.233 C 114.350 720.789, 155.300 744.415, 190.500 764.734 C 225.700 785.054, 270.925 811.142, 291 822.707 C 311.075 834.272, 329.868 844.930, 332.763 846.391 C 335.658 847.852, 342.022 850.386, 346.907 852.022 C 351.792 853.659, 361.056 855.898, 367.494 856.999 C 375.520 858.371, 383.762 859, 393.721 859 C 401.708 859, 412.941 858.302, 418.683 857.450 C 424.424 856.597, 432.987 854.780, 437.711 853.411 C 442.436 852.042, 449.496 849.445, 453.400 847.641 C 457.305 845.836, 503.250 819.683, 555.500 789.523 C 607.750 759.363, 665.350 726.135, 683.500 715.684 C 701.650 705.232, 719.200 694.886, 722.500 692.693 C 725.800 690.500, 733.474 683.709, 739.554 677.603 C 746.822 670.302, 753.083 662.784, 757.834 655.651 C 761.809 649.684, 767.057 640.644, 769.495 635.563 C 771.934 630.481, 775.263 622.314, 776.893 617.412 C 778.523 612.510, 780.658 605.125, 781.638 601 C 783.300 594.005, 783.442 583.020, 783.743 438 C 784.029 300.372, 783.885 281.254, 782.486 271.663 C 781.617 265.703, 779.340 256.028, 777.426 250.163 C 775.513 244.298, 771.751 235, 769.066 229.500 C 766.382 224, 761.972 216.125, 759.267 212 C 756.562 207.875, 751.089 200.594, 747.105 195.820 C 743.121 191.045, 736.056 183.969, 731.406 180.093 C 726.756 176.218, 717.675 169.946, 711.226 166.154 C 704.777 162.363, 654.050 133.036, 598.500 100.983 C 542.950 68.930, 488.950 37.764, 478.500 31.727 C 468.050 25.689, 456.056 19.266, 451.847 17.454 C 447.638 15.642, 440.888 13.238, 436.847 12.113 C 432.806 10.988, 425.675 9.413, 421 8.613 C 416.325 7.812, 406.875 6.946, 400 6.687 C 393.125 6.428, 385.700 6.392, 383.500 6.607 M 383 49.630 C 381.625 49.827, 377.375 50.497, 373.556 51.120 C 369.737 51.742, 363.496 53.311, 359.686 54.607 C 355.875 55.903, 349.775 58.616, 346.129 60.636 C 342.483 62.657, 333.875 67.577, 327 71.570 C 320.125 75.562, 272.650 102.980, 221.500 132.497 C 170.350 162.014, 119.779 191.190, 109.120 197.332 C 95.346 205.270, 87.701 210.380, 82.689 215 C 78.811 218.575, 72.982 225.077, 69.736 229.448 C 66.490 233.820, 61.398 242.370, 58.421 248.448 C 55.238 254.946, 51.976 263.570, 50.504 269.378 C 48 279.256, 48 279.256, 48 432.170 C 48 567.718, 48.180 585.960, 49.582 592.792 C 50.453 597.031, 52.891 604.703, 55 609.840 C 57.109 614.978, 60.971 622.714, 63.582 627.033 C 66.192 631.352, 71.324 638.398, 74.985 642.692 C 78.646 646.987, 84.085 652.371, 87.071 654.657 C 90.057 656.944, 123.100 676.467, 160.500 698.042 C 197.900 719.618, 254.600 752.350, 286.500 770.782 C 318.400 789.213, 347.435 805.769, 351.023 807.573 C 354.611 809.377, 361.083 811.780, 365.406 812.912 C 369.729 814.044, 378.078 815.452, 383.961 816.040 C 391.502 816.794, 397.688 816.798, 404.934 816.055 C 410.586 815.475, 417.976 814.307, 421.355 813.459 C 424.735 812.611, 429.975 810.948, 433 809.762 C 436.025 808.577, 446.825 802.827, 457 796.984 C 467.175 791.141, 525.225 757.663, 586 722.589 C 646.775 687.515, 698.943 656.947, 701.929 654.659 C 704.915 652.372, 710.354 646.987, 714.015 642.692 C 717.676 638.398, 722.808 631.352, 725.418 627.033 C 728.029 622.714, 731.894 614.978, 734.006 609.840 C 736.118 604.703, 738.569 596.900, 739.452 592.500 C 740.893 585.323, 741.029 568.561, 740.772 429.500 C 740.485 274.500, 740.485 274.500, 738.203 267 C 736.948 262.875, 733.505 254.550, 730.553 248.500 C 727.601 242.450, 722.446 233.832, 719.098 229.349 C 715.750 224.865, 709.910 218.340, 706.119 214.849 C 700.362 209.545, 688.060 202.057, 631.364 169.346 C 594.039 147.812, 535.600 114.080, 501.500 94.387 C 467.400 74.694, 436.997 57.567, 433.939 56.327 C 430.880 55.087, 425.739 53.386, 422.514 52.546 C 419.290 51.706, 413.029 50.564, 408.602 50.009 C 404.175 49.454, 397.166 49.061, 393.026 49.136 C 388.887 49.211, 384.375 49.433, 383 49.630 M 283.500 267.591 C 278.550 268.360, 271.125 269.974, 267 271.178 C 262.875 272.383, 256.125 274.800, 252 276.550 C 247.875 278.300, 242.025 281.191, 239 282.973 C 235.975 284.756, 230.499 288.432, 226.830 291.142 C 223.162 293.853, 216.412 300.015, 211.830 304.836 C 207.249 309.657, 201.169 316.982, 198.321 321.112 C 195.472 325.243, 190.676 333.320, 187.664 339.061 C 184.651 344.803, 180.582 353.833, 178.622 359.129 C 176.662 364.425, 173.651 373.627, 171.932 379.576 C 170.213 385.526, 167.764 395.818, 166.491 402.447 C 165.218 409.076, 163.393 420.800, 162.435 428.500 C 161.247 438.050, 160.663 450.287, 160.597 467 C 160.544 480.475, 161.136 499.488, 161.914 509.250 C 163.327 527, 163.327 527, 382.164 527 C 502.524 527, 601.337 527.112, 601.750 527.250 C 602.163 527.388, 602.616 501.057, 602.758 468.738 C 603.016 409.976, 603.016 409.976, 564.758 410.238 C 526.500 410.500, 526.500 410.500, 526.229 430.750 C 525.959 451, 525.959 451, 382.146 451 C 303.049 451, 238.113 450.780, 237.845 450.511 C 237.576 450.243, 237.943 444.505, 238.661 437.761 C 239.378 431.018, 240.896 421, 242.034 415.500 C 243.171 410, 245.459 401.060, 247.116 395.633 C 248.774 390.207, 251.932 382.082, 254.134 377.578 C 256.335 373.074, 260.128 366.714, 262.563 363.445 C 264.997 360.175, 269.804 355.368, 273.244 352.761 C 276.685 350.155, 282.200 347.005, 285.500 345.761 C 291.500 343.500, 291.500 343.500, 448.250 343.235 C 605 342.970, 605 342.970, 605 304.485 C 605 266, 605 266, 448.750 266.097 C 320.287 266.176, 290.899 266.442, 283.500 267.591 M 159.893 563.497 C 158.460 564.276, 156.492 566.126, 155.521 567.609 C 154.550 569.091, 152.913 575.298, 151.883 581.402 C 150.854 587.506, 150.009 594.658, 150.006 597.295 C 150.001 601.022, 150.532 602.623, 152.388 604.479 C 153.702 605.793, 156.289 607.151, 158.138 607.498 C 159.987 607.844, 173.200 607.986, 187.500 607.814 C 210.359 607.538, 213.902 607.281, 216.829 605.684 C 218.679 604.674, 220.732 602.453, 221.450 600.684 C 222.161 598.933, 223.313 593.740, 224.010 589.145 C 225.078 582.103, 225.059 580.651, 223.889 579.910 C 223.125 579.426, 216.570 579.024, 209.321 579.015 C 198.478 579.003, 195.855 579.288, 194.518 580.624 C 193.468 581.675, 193.001 583.529, 193.197 585.874 C 193.500 589.500, 193.500 589.500, 202.250 589.789 C 210.766 590.070, 211 590.143, 211 592.504 C 211 593.879, 210.162 595.378, 209.066 595.965 C 207.913 596.582, 198.855 597, 186.648 597 C 175.381 597, 165.452 596.727, 164.582 596.393 C 163.616 596.022, 163 594.594, 163 592.725 C 163 591.041, 163.506 586.702, 164.125 583.082 C 164.744 579.462, 165.660 575.712, 166.160 574.750 C 166.993 573.148, 169.388 573, 194.464 573 C 218.034 573, 222.076 572.781, 223.429 571.429 C 224.324 570.533, 225 568.167, 225 565.929 C 225 562, 225 562, 193.750 562.040 C 168.739 562.072, 161.980 562.363, 159.893 563.497 M 234.674 562.750 C 234.429 563.163, 232.777 572.832, 231.003 584.238 C 229.228 595.643, 228.038 605.656, 228.357 606.488 C 228.751 607.515, 230.309 607.995, 233.219 607.985 C 235.573 607.976, 238.031 607.632, 238.680 607.219 C 239.329 606.806, 240.388 603.438, 241.033 599.734 C 242.205 593, 242.205 593, 263.480 593 C 280.697 593, 284.981 593.272, 285.941 594.428 C 286.648 595.280, 287 598.206, 286.813 601.678 C 286.500 607.500, 286.500 607.500, 291.688 607.800 C 296.081 608.054, 297.045 607.784, 297.981 606.036 C 298.588 604.901, 299.179 601.103, 299.293 597.597 C 299.455 592.620, 299.098 590.778, 297.667 589.191 C 295.887 587.218, 295.891 587.129, 297.787 586.114 C 298.861 585.539, 300.427 583.591, 301.267 581.785 C 302.107 579.978, 303.107 576.144, 303.489 573.265 C 304.141 568.348, 304 567.846, 301.169 565.015 C 298.154 562, 298.154 562, 266.636 562 C 249.301 562, 234.918 562.337, 234.674 562.750 M 317.500 562.954 C 316.400 563.409, 314.543 564.843, 313.373 566.141 C 312.203 567.438, 310.762 570.075, 310.170 572 C 309.579 573.925, 308.101 582.073, 306.886 590.107 C 305.671 598.141, 304.960 605.454, 305.307 606.357 C 305.760 607.537, 307.179 608, 310.346 608 C 312.967 608, 315.241 607.415, 315.952 606.558 C 316.611 605.764, 317.459 602.952, 317.837 600.308 C 318.524 595.500, 318.524 595.500, 342.303 595.232 C 366.082 594.964, 366.082 594.964, 365.791 601.232 C 365.500 607.500, 365.500 607.500, 370 607.761 C 372.475 607.904, 375.096 607.632, 375.824 607.156 C 376.625 606.632, 378.093 600.219, 379.545 590.895 C 380.864 582.428, 381.956 573.778, 381.972 571.673 C 381.993 568.754, 381.307 567.153, 379.077 564.923 C 376.154 562, 376.154 562, 347.827 562.063 C 332.247 562.098, 318.600 562.499, 317.500 562.954 M 386 563.559 C 386 564.416, 391.212 574.203, 397.582 585.309 C 403.952 596.414, 409.888 606.063, 410.773 606.750 C 411.658 607.438, 414.572 608, 417.249 608 C 421.618 608, 422.567 607.565, 426.518 603.750 C 428.940 601.413, 437.910 591.625, 446.452 582 C 454.995 572.375, 461.988 563.938, 461.992 563.250 C 461.998 562.378, 460.045 562, 455.539 562 C 450.140 562, 448.726 562.370, 446.937 564.250 C 445.759 565.487, 438.935 573.129, 431.773 581.232 C 424.610 589.334, 418.410 595.753, 417.994 595.496 C 417.578 595.239, 413.057 587.597, 407.948 578.514 C 398.658 562, 398.658 562, 392.329 562 C 387.264 562, 386 562.311, 386 563.559 M 466.534 563.250 C 466.312 563.938, 464.707 573.624, 462.968 584.775 C 461.228 595.927, 460.060 605.714, 460.371 606.525 C 460.750 607.511, 462.357 607.995, 465.219 607.985 C 467.573 607.976, 470.090 607.595, 470.810 607.138 C 471.624 606.622, 473.403 598.222, 475.505 584.969 C 477.366 573.233, 478.663 563.263, 478.386 562.815 C 478.109 562.367, 475.419 562, 472.410 562 C 468.914 562, 466.791 562.451, 466.534 563.250 M 483.927 564.691 C 483.365 566.171, 483.038 568.534, 483.202 569.941 C 483.500 572.500, 483.500 572.500, 497.750 572.777 C 510.473 573.025, 511.997 573.240, 511.974 574.777 C 511.960 575.725, 510.883 583.025, 509.581 591 C 507.951 600.985, 507.530 605.889, 508.229 606.750 C 508.788 607.438, 511.160 608, 513.500 608 C 515.840 608, 518.215 607.438, 518.778 606.750 C 519.341 606.063, 520.756 599.425, 521.924 592 C 523.092 584.575, 524.297 577.263, 524.603 575.750 C 525.159 573, 525.159 573, 539.008 573 C 550.265 573, 553.151 572.706, 554.429 571.429 C 555.324 570.533, 556 568.167, 556 565.929 C 556 562, 556 562, 520.475 562 C 484.950 562, 484.950 562, 483.927 564.691 M 559.521 563.250 C 559.292 563.938, 558.415 569, 557.572 574.500 C 556.642 580.563, 556.353 585.681, 556.838 587.500 C 557.294 589.209, 559.070 591.468, 560.967 592.750 C 563.911 594.740, 565.548 595, 575.123 595 C 585.950 595, 585.950 595, 585.412 598.250 C 585.115 600.038, 584.696 602.377, 584.478 603.448 C 584.261 604.519, 584.570 605.982, 585.164 606.698 C 585.759 607.414, 588.160 608, 590.500 608 C 592.840 608, 595.231 607.426, 595.813 606.725 C 596.395 606.024, 597.179 603.134, 597.554 600.304 C 598.237 595.158, 598.237 595.158, 610.549 594.829 C 621.092 594.547, 623.266 594.203, 625.681 592.435 C 627.231 591.300, 629.263 588.825, 630.197 586.935 C 631.130 585.046, 632.598 579.079, 633.460 573.676 C 634.322 568.274, 634.769 563.436, 634.455 562.926 C 634.140 562.417, 631.464 562, 628.508 562 C 624.249 562, 623.030 562.363, 622.632 563.750 C 622.355 564.712, 621.585 569.007, 620.920 573.294 C 620.008 579.175, 619.201 581.446, 617.633 582.544 C 615.970 583.709, 611.245 584, 593.969 584 C 577.936 584, 571.929 583.669, 570.620 582.712 C 568.963 581.500, 568.950 580.898, 570.403 572.574 C 571.253 567.707, 571.708 563.337, 571.415 562.862 C 571.122 562.388, 568.419 562, 565.410 562 C 561.920 562, 559.786 562.453, 559.521 563.250 M 244.986 575.250 C 244.979 576.487, 244.701 578.513, 244.370 579.750 C 243.767 582, 243.767 582, 265.683 582 C 281.396 582, 287.940 581.660, 288.800 580.800 C 289.460 580.140, 290 578.115, 290 576.300 C 290 573, 290 573, 267.500 573 C 245 573, 245 573, 244.986 575.250 M 323.048 574.442 C 322.373 575.256, 321.576 577.739, 321.278 579.961 C 320.737 584, 320.737 584, 344.323 584 C 367.909 584, 367.909 584, 368.547 580.600 C 368.898 578.730, 369.025 576.367, 368.829 575.350 C 368.498 573.626, 366.963 573.482, 346.375 573.231 C 327.856 573.006, 324.077 573.202, 323.048 574.442" stroke="none" fill="white" fill-rule="evenodd"/></svg>