<svg xmlns="http://www.w3.org/2000/svg" width="150" height="134" viewBox="0 0 150 134" version="1.1"><path d="M 54 7 L 54 11 42.500 11 L 31 11 31 15.500 C 31 19.333, 31.296 20, 33 20 C 34.556 20, 35 20.667, 35 23 L 35 26 26 26 L 17 26 17 30 C 17 32.889, 17.417 34, 18.500 34 C 19.812 34, 20 39.889, 20 81 L 20 128 12.059 128 C 7.691 128, 3.840 128.450, 3.500 129 C 3.090 129.663, 26.990 130, 74.441 130 C 121.480 130, 146 129.657, 146 129 C 146 128.450, 143.750 128, 141 128 L 136 128 136 124 C 136 121.111, 135.583 120, 134.500 120 C 133.186 120, 133 113.444, 133 67 C 133 20.556, 133.186 14, 134.500 14 C 135.652 14, 136 12.722, 136 8.500 L 136 3 95 3 L 54 3 54 7 M 56.680 5.653 C 56.306 6.027, 56 7.383, 56 8.667 L 56 11 88.566 11 L 121.133 11 120.816 8.250 L 120.500 5.500 88.930 5.236 C 71.567 5.091, 57.055 5.279, 56.680 5.653 M 124 8 C 124 10.933, 124.111 11, 129 11 C 133.889 11, 134 10.933, 134 8 C 134 5.067, 133.889 5, 129 5 C 124.111 5, 124 5.067, 124 8 M 33 15.500 C 33 16.750, 35 17, 45 17 C 55 17, 57 16.750, 57 15.500 C 57 14.250, 55 14, 45 14 C 35 14, 33 14.250, 33 15.500 M 60 54.500 L 60 95 88.500 95 L 117 95 117 54.500 L 117 14 88.500 14 L 60 14 60 54.500 M 120 54.500 L 120 95 125.500 95 L 131 95 131 54.500 L 131 14 125.500 14 L 120 14 120 54.500 M 65.694 17.639 C 65.312 18.021, 65 21.646, 65 25.695 L 65 33.056 78.750 32.778 L 92.500 32.500 92.500 25 L 92.500 17.500 79.444 17.222 C 72.264 17.070, 66.076 17.257, 65.694 17.639 M 97.421 17.912 C 97.190 18.144, 97 21.633, 97 25.667 L 97 33 104.542 33 L 112.084 33 111.792 25.250 L 111.500 17.500 104.671 17.495 C 100.916 17.493, 97.653 17.680, 97.421 17.912 M 37 67.531 C 37 111.234, 37.136 115.115, 38.690 115.711 C 39.683 116.092, 40.559 115.822, 40.815 115.056 C 41.054 114.339, 42.502 112.350, 44.034 110.636 C 46.457 107.924, 47.479 107.518, 51.906 107.510 L 56.994 107.500 56.997 63.750 L 57 20 47 20 L 37 20 37 67.531 M 68 25.500 L 68 31 79 31 L 90 31 90 25.500 L 90 20 79 20 L 68 20 68 25.500 M 100 25.500 L 100 31 104.403 31 L 108.807 31 109.153 25.916 C 109.344 23.120, 109.313 20.645, 109.083 20.416 C 108.854 20.187, 106.717 20, 104.333 20 L 100 20 100 25.500 M 43 31.945 L 43 40 48.042 40 L 53.084 40 52.792 32.250 L 52.500 24.500 47.750 24.195 L 43 23.890 43 31.945 M 45 31.875 C 45 35.179, 45.454 38.163, 46.009 38.506 C 46.564 38.848, 47.935 38.838, 49.056 38.482 C 50.842 37.915, 51.058 37.133, 50.797 32.168 C 50.516 26.814, 50.348 26.482, 47.750 26.184 C 45.020 25.869, 45 25.911, 45 31.875 M 19 30 C 19 31.833, 19.667 32, 27 32 C 34.333 32, 35 31.833, 35 30 C 35 28.167, 34.333 28, 27 28 C 19.667 28, 19 28.167, 19 30 M 22 81 L 22 128 24.889 128 C 27.389 128, 27.864 127.537, 28.423 124.560 C 28.805 122.522, 30.276 120.104, 32.034 118.625 L 35 116.129 35 75.065 L 35 34 28.500 34 L 22 34 22 81 M 65 44.472 L 65 52 79.044 52 L 93.088 52 92.794 44.750 L 92.500 37.500 78.750 37.222 L 65 36.944 65 44.472 M 97 44.500 L 97 52 104.500 52 L 112 52 112 44.500 L 112 37 104.500 37 L 97 37 97 44.500 M 28 45.559 C 28 49.677, 28.372 51.888, 29 51.500 C 29.550 51.160, 30 48.209, 30 44.941 C 30 41.647, 29.554 39, 29 39 C 28.435 39, 28 41.853, 28 45.559 M 68 44.500 L 68 50 79 50 L 90 50 90 44.500 L 90 39 79 39 L 68 39 68 44.500 M 100 44.500 L 100 50 104.500 50 L 109 50 109 44.500 L 109 39 104.500 39 L 100 39 100 44.500 M 43 52.945 L 43 61 48.042 61 L 53.084 61 52.792 53.250 L 52.500 45.500 47.750 45.195 L 43 44.890 43 52.945 M 45 52.934 L 45 59 48.050 59 L 51.100 59 50.800 53.250 C 50.516 47.807, 50.353 47.483, 47.750 47.184 C 45.017 46.869, 45 46.906, 45 52.934 M 65.428 57.326 C 65.136 58.088, 65.033 61.588, 65.199 65.105 L 65.500 71.500 79 71.500 L 92.500 71.500 92.500 64 L 92.500 56.500 79.230 56.221 C 68.657 55.998, 65.852 56.223, 65.428 57.326 M 97.435 57.309 C 97.139 58.080, 97.033 61.588, 97.199 65.105 L 97.500 71.500 104.500 71.500 L 111.500 71.500 111.500 64 L 111.500 56.500 104.736 56.204 C 99.651 55.981, 97.839 56.256, 97.435 57.309 M 28 64.441 C 28 68.147, 28.435 71, 29 71 C 29.554 71, 30 68.353, 30 65.059 C 30 61.791, 29.550 58.840, 29 58.500 C 28.372 58.112, 28 60.323, 28 64.441 M 68 64 L 68 69 79 69 L 90 69 90 64 L 90 59 79 59 L 68 59 68 64 M 100 64 L 100 69 104.333 69 C 106.717 69, 108.860 68.807, 109.096 68.571 C 109.332 68.334, 109.362 66.084, 109.162 63.571 L 108.799 59 104.399 59 L 100 59 100 64 M 43 73.945 L 43 82 48.042 82 L 53.084 82 52.792 74.250 L 52.500 66.500 47.750 66.195 L 43 65.890 43 73.945 M 45 73.934 L 45 80 48.050 80 L 51.100 80 50.800 74.250 C 50.516 68.807, 50.353 68.483, 47.750 68.184 C 45.017 67.869, 45 67.906, 45 73.934 M 65.206 83.250 L 65.500 90.500 79 90.500 L 92.500 90.500 92.794 83.250 L 93.088 76 79 76 L 64.912 76 65.206 83.250 M 97 83.500 L 97 91 104.500 91 L 112 91 112 83.500 L 112 76 104.500 76 L 97 76 97 83.500 M 28 84.500 C 28 88.657, 28.372 90.888, 29 90.500 C 29.550 90.160, 30 87.460, 30 84.500 C 30 81.540, 29.550 78.840, 29 78.500 C 28.372 78.112, 28 80.343, 28 84.500 M 68 83.500 L 68 89 79 89 L 90 89 90 83.500 L 90 78 79 78 L 68 78 68 83.500 M 100 83.500 L 100 89.110 104.648 88.805 L 109.295 88.500 109.295 83.500 L 109.295 78.500 104.648 78.195 L 100 77.890 100 83.500 M 43 95.055 L 43 103.110 47.750 102.805 L 52.500 102.500 52.792 94.750 L 53.084 87 48.042 87 L 43 87 43 95.055 M 45 95.066 C 45 101.094, 45.017 101.131, 47.750 100.816 C 50.353 100.517, 50.516 100.193, 50.800 94.750 L 51.100 89 48.050 89 L 45 89 45 95.066 M 28 103.441 C 28 107.147, 28.435 110, 29 110 C 29.554 110, 30 107.353, 30 104.059 C 30 100.791, 29.550 97.840, 29 97.500 C 28.372 97.112, 28 99.323, 28 103.441 M 60.022 103.250 C 60.039 107.909, 60.542 110.136, 62 112 C 63.076 113.375, 63.966 115.737, 63.978 117.250 C 64 119.986, 64.036 120, 71 120 L 78 120 78 110.966 L 78 101.932 88.750 102.216 L 99.500 102.500 99.789 111.250 L 100.078 120 108.539 120 L 117 120 117 108.500 L 117 97 88.500 97 L 60 97 60.022 103.250 M 120.335 98.571 C 120.108 99.160, 120.053 104.110, 120.212 109.571 L 120.500 119.500 125.500 119.500 L 130.500 119.500 130.500 108.500 L 130.500 97.500 125.623 97.500 C 122.941 97.500, 120.561 97.982, 120.335 98.571 M 80.667 104.667 C 80.300 105.033, 80 110.433, 80 116.667 L 80 128 88.500 128 L 97 128 97 116 L 97 104 89.167 104 C 84.858 104, 81.033 104.300, 80.667 104.667 M 47.816 110.538 C 46.339 111.339, 44.598 113.469, 43.947 115.270 C 42.878 118.225, 42.372 118.545, 38.775 118.545 C 35.801 118.545, 34.305 119.140, 32.893 120.884 C 31.852 122.169, 31 124.332, 31 125.690 L 31 128.159 44.091 127.829 C 56.471 127.518, 57.286 127.371, 59.103 125.124 C 60.160 123.817, 61.284 121.717, 61.600 120.458 C 61.916 119.199, 61.438 116.619, 60.539 114.723 C 59.640 112.828, 57.779 110.765, 56.405 110.139 C 55.030 109.512, 53.140 109.018, 52.203 109.040 C 51.266 109.062, 49.292 109.736, 47.816 110.538 M 62.158 125 L 59.940 128 68.970 128 L 78 128 78 125 L 78 122 71.188 122 C 64.779 122, 64.245 122.177, 62.158 125 M 100 125 L 100 128 110.500 128 L 121 128 121 125 L 121 122 110.500 122 L 100 122 100 125 M 124 125 C 124 127.933, 124.111 128, 129 128 C 133.889 128, 134 127.933, 134 125 C 134 122.067, 133.889 122, 129 122 C 124.111 122, 124 122.067, 124 125" stroke="none" fill="#60a5fa" fill-rule="evenodd"/><path d="M 136.310 8.500 C 136.315 11.800, 136.502 13.029, 136.725 11.232 C 136.947 9.435, 136.943 6.735, 136.715 5.232 C 136.486 3.729, 136.304 5.200, 136.310 8.500 M 56.680 5.653 C 56.306 6.027, 56 7.383, 56 8.667 L 56 11 88.566 11 L 121.133 11 120.816 8.250 L 120.500 5.500 88.930 5.236 C 71.567 5.091, 57.055 5.279, 56.680 5.653 M 124 8 C 124 10.933, 124.111 11, 129 11 C 133.889 11, 134 10.933, 134 8 C 134 5.067, 133.889 5, 129 5 C 124.111 5, 124 5.067, 124 8 M 33 15.500 C 33 16.750, 35 17, 45 17 C 55 17, 57 16.750, 57 15.500 C 57 14.250, 55 14, 45 14 C 35 14, 33 14.250, 33 15.500 M 60 54.500 L 60 95 88.500 95 L 117 95 117 54.500 L 117 14 88.500 14 L 60 14 60 54.500 M 120 54.500 L 120 95 125.500 95 L 131 95 131 54.500 L 131 14 125.500 14 L 120 14 120 54.500 M 65.694 17.639 C 65.312 18.021, 65 21.646, 65 25.695 L 65 33.056 78.750 32.778 L 92.500 32.500 92.500 25 L 92.500 17.500 79.444 17.222 C 72.264 17.070, 66.076 17.257, 65.694 17.639 M 97.421 17.912 C 97.190 18.144, 97 21.633, 97 25.667 L 97 33 104.542 33 L 112.084 33 111.792 25.250 L 111.500 17.500 104.671 17.495 C 100.916 17.493, 97.653 17.680, 97.421 17.912 M 37 67.531 C 37 111.234, 37.136 115.115, 38.690 115.711 C 39.683 116.092, 40.559 115.822, 40.815 115.056 C 41.054 114.339, 42.502 112.350, 44.034 110.636 C 46.457 107.924, 47.479 107.518, 51.906 107.510 L 56.994 107.500 56.997 63.750 L 57 20 47 20 L 37 20 37 67.531 M 68 25.500 L 68 31 79 31 L 90 31 90 25.500 L 90 20 79 20 L 68 20 68 25.500 M 100 25.500 L 100 31 104.403 31 L 108.807 31 109.153 25.916 C 109.344 23.120, 109.313 20.645, 109.083 20.416 C 108.854 20.187, 106.717 20, 104.333 20 L 100 20 100 25.500 M 43 31.945 L 43 40 48.042 40 L 53.084 40 52.792 32.250 L 52.500 24.500 47.750 24.195 L 43 23.890 43 31.945 M 16.398 26.405 C 16.102 27.177, 16.044 29.315, 16.270 31.155 C 16.643 34.199, 16.694 34.121, 16.840 30.288 L 17 26.075 26.250 25.745 L 35.500 25.415 26.219 25.208 C 19.028 25.047, 16.816 25.316, 16.398 26.405 M 45 31.875 C 45 35.179, 45.454 38.163, 46.009 38.506 C 46.564 38.848, 47.935 38.838, 49.056 38.482 C 50.842 37.915, 51.058 37.133, 50.797 32.168 C 50.516 26.814, 50.348 26.482, 47.750 26.184 C 45.020 25.869, 45 25.911, 45 31.875 M 19 30 C 19 31.833, 19.667 32, 27 32 C 34.333 32, 35 31.833, 35 30 C 35 28.167, 34.333 28, 27 28 C 19.667 28, 19 28.167, 19 30 M 19 34.500 C 19 34.775, 19.225 35, 19.500 35 C 19.775 35, 20 34.775, 20 34.500 C 20 34.225, 19.775 34, 19.500 34 C 19.225 34, 19 34.225, 19 34.500 M 22 81 L 22 128 24.889 128 C 27.389 128, 27.864 127.537, 28.423 124.560 C 28.805 122.522, 30.276 120.104, 32.034 118.625 L 35 116.129 35 75.065 L 35 34 28.500 34 L 22 34 22 81 M 65 44.472 L 65 52 79.044 52 L 93.088 52 92.794 44.750 L 92.500 37.500 78.750 37.222 L 65 36.944 65 44.472 M 97 44.500 L 97 52 104.500 52 L 112 52 112 44.500 L 112 37 104.500 37 L 97 37 97 44.500 M 28 45.559 C 28 49.677, 28.372 51.888, 29 51.500 C 29.550 51.160, 30 48.209, 30 44.941 C 30 41.647, 29.554 39, 29 39 C 28.435 39, 28 41.853, 28 45.559 M 68 44.500 L 68 50 79 50 L 90 50 90 44.500 L 90 39 79 39 L 68 39 68 44.500 M 100 44.500 L 100 50 104.500 50 L 109 50 109 44.500 L 109 39 104.500 39 L 100 39 100 44.500 M 43 52.945 L 43 61 48.042 61 L 53.084 61 52.792 53.250 L 52.500 45.500 47.750 45.195 L 43 44.890 43 52.945 M 45 52.934 L 45 59 48.050 59 L 51.100 59 50.800 53.250 C 50.516 47.807, 50.353 47.483, 47.750 47.184 C 45.017 46.869, 45 46.906, 45 52.934 M 65.428 57.326 C 65.136 58.088, 65.033 61.588, 65.199 65.105 L 65.500 71.500 79 71.500 L 92.500 71.500 92.500 64 L 92.500 56.500 79.230 56.221 C 68.657 55.998, 65.852 56.223, 65.428 57.326 M 97.435 57.309 C 97.139 58.080, 97.033 61.588, 97.199 65.105 L 97.500 71.500 104.500 71.500 L 111.500 71.500 111.500 64 L 111.500 56.500 104.736 56.204 C 99.651 55.981, 97.839 56.256, 97.435 57.309 M 28 64.441 C 28 68.147, 28.435 71, 29 71 C 29.554 71, 30 68.353, 30 65.059 C 30 61.791, 29.550 58.840, 29 58.500 C 28.372 58.112, 28 60.323, 28 64.441 M 68 64 L 68 69 79 69 L 90 69 90 64 L 90 59 79 59 L 68 59 68 64 M 100 64 L 100 69 104.333 69 C 106.717 69, 108.860 68.807, 109.096 68.571 C 109.332 68.334, 109.362 66.084, 109.162 63.571 L 108.799 59 104.399 59 L 100 59 100 64 M 43 73.945 L 43 82 48.042 82 L 53.084 82 52.792 74.250 L 52.500 66.500 47.750 66.195 L 43 65.890 43 73.945 M 45 73.934 L 45 80 48.050 80 L 51.100 80 50.800 74.250 C 50.516 68.807, 50.353 68.483, 47.750 68.184 C 45.017 67.869, 45 67.906, 45 73.934 M 65.206 83.250 L 65.500 90.500 79 90.500 L 92.500 90.500 92.794 83.250 L 93.088 76 79 76 L 64.912 76 65.206 83.250 M 97 83.500 L 97 91 104.500 91 L 112 91 112 83.500 L 112 76 104.500 76 L 97 76 97 83.500 M 28 84.500 C 28 88.657, 28.372 90.888, 29 90.500 C 29.550 90.160, 30 87.460, 30 84.500 C 30 81.540, 29.550 78.840, 29 78.500 C 28.372 78.112, 28 80.343, 28 84.500 M 68 83.500 L 68 89 79 89 L 90 89 90 83.500 L 90 78 79 78 L 68 78 68 83.500 M 100 83.500 L 100 89.110 104.648 88.805 L 109.295 88.500 109.295 83.500 L 109.295 78.500 104.648 78.195 L 100 77.890 100 83.500 M 43 95.055 L 43 103.110 47.750 102.805 L 52.500 102.500 52.792 94.750 L 53.084 87 48.042 87 L 43 87 43 95.055 M 45 95.066 C 45 101.094, 45.017 101.131, 47.750 100.816 C 50.353 100.517, 50.516 100.193, 50.800 94.750 L 51.100 89 48.050 89 L 45 89 45 95.066 M 28 103.441 C 28 107.147, 28.435 110, 29 110 C 29.554 110, 30 107.353, 30 104.059 C 30 100.791, 29.550 97.840, 29 97.500 C 28.372 97.112, 28 99.323, 28 103.441 M 60.022 103.250 C 60.039 107.909, 60.542 110.136, 62 112 C 63.076 113.375, 63.966 115.737, 63.978 117.250 C 64 119.986, 64.036 120, 71 120 L 78 120 78 110.966 L 78 101.932 88.750 102.216 L 99.500 102.500 99.789 111.250 L 100.078 120 108.539 120 L 117 120 117 108.500 L 117 97 88.500 97 L 60 97 60.022 103.250 M 120.335 98.571 C 120.108 99.160, 120.053 104.110, 120.212 109.571 L 120.500 119.500 125.500 119.500 L 130.500 119.500 130.500 108.500 L 130.500 97.500 125.623 97.500 C 122.941 97.500, 120.561 97.982, 120.335 98.571 M 80.667 104.667 C 80.300 105.033, 80 110.433, 80 116.667 L 80 128 88.500 128 L 97 128 97 116 L 97 104 89.167 104 C 84.858 104, 81.033 104.300, 80.667 104.667 M 47.816 110.538 C 46.339 111.339, 44.598 113.469, 43.947 115.270 C 42.878 118.225, 42.372 118.545, 38.775 118.545 C 35.801 118.545, 34.305 119.140, 32.893 120.884 C 31.852 122.169, 31 124.332, 31 125.690 L 31 128.159 44.091 127.829 C 56.471 127.518, 57.286 127.371, 59.103 125.124 C 60.160 123.817, 61.284 121.717, 61.600 120.458 C 61.916 119.199, 61.438 116.619, 60.539 114.723 C 59.640 112.828, 57.779 110.765, 56.405 110.139 C 55.030 109.512, 53.140 109.018, 52.203 109.040 C 51.266 109.062, 49.292 109.736, 47.816 110.538 M 133 119.500 C 133 119.775, 133.225 120, 133.500 120 C 133.775 120, 134 119.775, 134 119.500 C 134 119.225, 133.775 119, 133.500 119 C 133.225 119, 133 119.225, 133 119.500 M 136.272 124 C 136.272 126.475, 136.467 127.487, 136.706 126.250 C 136.944 125.013, 136.944 122.987, 136.706 121.750 C 136.467 120.513, 136.272 121.525, 136.272 124 M 62.158 125 L 59.940 128 68.970 128 L 78 128 78 125 L 78 122 71.188 122 C 64.779 122, 64.245 122.177, 62.158 125 M 100 125 L 100 128 110.500 128 L 121 128 121 125 L 121 122 110.500 122 L 100 122 100 125 M 124 125 C 124 127.933, 124.111 128, 129 128 C 133.889 128, 134 127.933, 134 125 C 134 122.067, 133.889 122, 129 122 C 124.111 122, 124 122.067, 124 125 M 19 123.500 C 19 123.775, 19.225 124, 19.500 124 C 19.775 124, 20 123.775, 20 123.500 C 20 123.225, 19.775 123, 19.500 123 C 19.225 123, 19 123.225, 19 123.500 M 7.728 127.722 C 9.503 127.943, 12.653 127.946, 14.728 127.730 C 16.802 127.513, 15.350 127.333, 11.500 127.328 C 7.650 127.324, 5.952 127.501, 7.728 127.722 M 19 127.500 C 19 127.775, 19.225 128, 19.500 128 C 19.775 128, 20 127.775, 20 127.500 C 20 127.225, 19.775 127, 19.500 127 C 19.225 127, 19 127.225, 19 127.500 M 3 128.500 C 3 128.775, 3.225 129, 3.500 129 C 3.775 129, 4 128.775, 4 128.500 C 4 128.225, 3.775 128, 3.500 128 C 3.225 128, 3 128.225, 3 128.500" stroke="none" fill="#bfdbfe" fill-rule="evenodd"/></svg>