<svg width="50" height="44" viewBox="0 0 50 44" fill="none" xmlns="http://www.w3.org/2000/svg">
<g filter="url(#filter0_d)">
<path d="M10 16.6666H40H10ZM16.6667 24.9999H18.3333H16.6667ZM25 24.9999H26.6667H25ZM15 31.6666H35C36.3261 31.6666 37.5979 31.1398 38.5355 30.2021C39.4732 29.2644 40 27.9927 40 26.6666V13.3333C40 12.0072 39.4732 10.7354 38.5355 9.79772C37.5979 8.86004 36.3261 8.33325 35 8.33325H15C13.6739 8.33325 12.4021 8.86004 11.4645 9.79772C10.5268 10.7354 10 12.0072 10 13.3333V26.6666C10 27.9927 10.5268 29.2644 11.4645 30.2021C12.4021 31.1398 13.6739 31.6666 15 31.6666Z" stroke="white" stroke-width="3.33333" stroke-linecap="round" stroke-linejoin="round"/>
</g>
<defs>
<filter id="filter0_d" x="-3" y="-6" width="56" height="56" filterUnits="userSpaceOnUse" color-interpolation-filters="sRGB">
<feFlood flood-opacity="0" result="BackgroundImageFix"/>
<feColorMatrix in="SourceAlpha" type="matrix" values="0 0 0 0 0 0 0 0 0 0 0 0 0 0 0 0 0 0 127 0"/>
<feOffset dy="2"/>
<feGaussianBlur stdDeviation="4"/>
<feColorMatrix type="matrix" values="0 0 0 0 0 0 0 0 0 0 0 0 0 0 0 0 0 0 0.08 0"/>
<feBlend mode="normal" in2="BackgroundImageFix" result="effect1_dropShadow"/>
<feBlend mode="normal" in="SourceGraphic" in2="effect1_dropShadow" result="shape"/>
</filter>
</defs>
</svg>
