<svg xmlns="http://www.w3.org/2000/svg" width="148" height="94" viewBox="0 0 148 94" version="1.1"><path d="M 39.667 2.667 C 39.300 3.033, 39 5.456, 39 8.050 C 39 11.926, 39.357 12.860, 41 13.290 C 42.937 13.796, 43 14.654, 43 40.431 L 43 67.050 40.250 68.091 C 38.737 68.664, 36.487 70.082, 35.250 71.241 C 34.013 72.400, 33 73.945, 33 74.674 C 33 75.473, 31.837 76, 30.071 76 C 28.119 76, 25.951 77.124, 23.571 79.368 C 20.953 81.837, 20 83.572, 20 85.868 L 20 89 11 89 C 5.667 89, 2 89.407, 2 90 C 2 90.657, 26.528 91, 73.583 91 C 130.405 91, 145.081 90.742, 144.752 89.750 C 144.461 88.873, 141.005 88.416, 133.169 88.217 L 122 87.934 122 83.967 C 122 81.107, 121.581 80, 120.500 80 C 119.197 80, 119 75.611, 119 46.500 C 119 17.389, 119.197 13, 120.500 13 C 121.652 13, 122 11.722, 122 7.500 L 122 2 81.167 2 C 58.708 2, 40.033 2.300, 39.667 2.667 M 42 8 L 42 11 74 11 L 106 11 106 8 L 106 5 74 5 L 42 5 42 8 M 109 7.500 C 109 9.833, 109.333 10, 114 10 C 118.667 10, 119 9.833, 119 7.500 C 119 5.167, 118.667 5, 114 5 C 109.333 5, 109 5.167, 109 7.500 M 45.493 14.250 C 45.249 14.938, 45.151 24.500, 45.275 35.500 L 45.500 55.500 74.250 55.765 L 103 56.031 103 34.515 L 103 13 74.469 13 C 52.547 13, 45.834 13.290, 45.493 14.250 M 106 34.500 L 106 56 111 56 L 116 56 116 34.500 L 116 13 111 13 L 106 13 106 34.500 M 51.208 24.750 L 51.500 32.500 64.500 32.500 L 77.500 32.500 77.792 24.750 L 78.084 17 64.500 17 L 50.916 17 51.208 24.750 M 83 25.044 L 83 33.088 90.250 32.794 L 97.500 32.500 97.792 24.750 L 98.084 17 90.542 17 L 83 17 83 25.044 M 53 25 L 53 30 64.500 30 L 76 30 76 25 L 76 20 64.500 20 L 53 20 53 25 M 85 25 L 85 30 90 30 L 95 30 95 25 L 95 20 90 20 L 85 20 85 25 M 51 44 L 51 52 64.500 52 L 78 52 78 44 L 78 36 64.500 36 L 51 36 51 44 M 82.947 36.456 C 82.918 36.755, 82.871 40.263, 82.842 44.250 L 82.789 51.500 90.145 51.500 L 97.500 51.500 97.500 44 L 97.500 36.500 90.250 36.206 C 86.263 36.045, 82.976 36.157, 82.947 36.456 M 53 44 L 53 49 64.500 49 L 76 49 76 44 L 76 39 64.500 39 L 53 39 53 44 M 85 44 L 85 49 90 49 L 95 49 95 44 L 95 39 90 39 L 85 39 85 44 M 45.682 58.651 C 45.307 59.026, 45 61.052, 45 63.153 C 45 66.518, 45.388 67.135, 48.250 68.332 C 50.038 69.079, 52.114 70.431, 52.865 71.336 C 53.615 72.241, 54.810 74.673, 55.520 76.741 C 56.615 79.931, 57.279 80.525, 59.905 80.663 L 63 80.826 63 71.913 L 63 63 73.961 63 L 84.922 63 85.211 71.750 L 85.500 80.500 94 80.500 L 102.500 80.500 102.500 69.500 L 102.500 58.500 74.432 58.235 C 58.994 58.089, 46.057 58.276, 45.682 58.651 M 105.999 69.250 L 106 80 111.034 80 L 116.068 80 115.784 69.371 L 115.500 58.741 110.749 58.621 L 105.998 58.500 105.999 69.250 M 66 77.040 L 66 89.081 74.250 88.790 L 82.500 88.500 82.782 76.750 L 83.063 65 74.532 65 L 66 65 66 77.040 M 37.923 72.923 C 36.315 74.531, 35 76.752, 35 77.860 C 35 79.574, 34.515 79.796, 31.750 79.347 C 29.367 78.960, 27.765 79.397, 25.750 80.982 C 23.839 82.486, 23 84.063, 23 86.154 L 23 89.163 35.589 88.832 C 47.965 88.506, 48.219 88.453, 50.589 85.694 C 52.149 83.878, 53 81.646, 53 79.367 C 53 76.809, 52.201 75.047, 50.077 72.923 C 48.082 70.928, 46.152 70, 44 70 C 41.848 70, 39.918 70.928, 37.923 72.923 M 53.797 86.006 L 52.093 89 57.547 89 C 62.939 89, 63 88.967, 63 86 C 63 83.199, 62.751 83, 59.250 83.006 C 56.134 83.012, 55.212 83.519, 53.797 86.006 M 85 86 L 85 89 95.500 89 L 106 89 106 86 L 106 83 95.500 83 L 85 83 85 86 M 109 85.403 C 109 87.575, 109.483 87.840, 114.001 88.153 C 118.873 88.491, 119.001 88.430, 119.001 85.750 C 119 83.117, 118.788 83, 114 83 C 109.387 83, 109 83.186, 109 85.403" stroke="none" fill="#60a5fa" fill-rule="evenodd"/><path d="M 42 8 L 42 11 74 11 L 106 11 106 8 L 106 5 74 5 L 42 5 42 8 M 109 7.500 C 109 9.833, 109.333 10, 114 10 C 118.667 10, 119 9.833, 119 7.500 C 119 5.167, 118.667 5, 114 5 C 109.333 5, 109 5.167, 109 7.500 M 45.493 14.250 C 45.249 14.938, 45.151 24.500, 45.275 35.500 L 45.500 55.500 74.250 55.765 L 103 56.031 103 34.515 L 103 13 74.469 13 C 52.547 13, 45.834 13.290, 45.493 14.250 M 106 34.500 L 106 56 111 56 L 116 56 116 34.500 L 116 13 111 13 L 106 13 106 34.500 M 51.208 24.750 L 51.500 32.500 64.500 32.500 L 77.500 32.500 77.792 24.750 L 78.084 17 64.500 17 L 50.916 17 51.208 24.750 M 83 25.044 L 83 33.088 90.250 32.794 L 97.500 32.500 97.792 24.750 L 98.084 17 90.542 17 L 83 17 83 25.044 M 53 25 L 53 30 64.500 30 L 76 30 76 25 L 76 20 64.500 20 L 53 20 53 25 M 85 25 L 85 30 90 30 L 95 30 95 25 L 95 20 90 20 L 85 20 85 25 M 51 44 L 51 52 64.500 52 L 78 52 78 44 L 78 36 64.500 36 L 51 36 51 44 M 82.947 36.456 C 82.918 36.755, 82.871 40.263, 82.842 44.250 L 82.789 51.500 90.145 51.500 L 97.500 51.500 97.500 44 L 97.500 36.500 90.250 36.206 C 86.263 36.045, 82.976 36.157, 82.947 36.456 M 53 44 L 53 49 64.500 49 L 76 49 76 44 L 76 39 64.500 39 L 53 39 53 44 M 85 44 L 85 49 90 49 L 95 49 95 44 L 95 39 90 39 L 85 39 85 44 M 45.682 58.651 C 45.307 59.026, 45 61.052, 45 63.153 C 45 66.518, 45.388 67.135, 48.250 68.332 C 50.038 69.079, 52.114 70.431, 52.865 71.336 C 53.615 72.241, 54.810 74.673, 55.520 76.741 C 56.615 79.931, 57.279 80.525, 59.905 80.663 L 63 80.826 63 71.913 L 63 63 73.961 63 L 84.922 63 85.211 71.750 L 85.500 80.500 94 80.500 L 102.500 80.500 102.500 69.500 L 102.500 58.500 74.432 58.235 C 58.994 58.089, 46.057 58.276, 45.682 58.651 M 105.999 69.250 L 106 80 111.034 80 L 116.068 80 115.784 69.371 L 115.500 58.741 110.749 58.621 L 105.998 58.500 105.999 69.250 M 66 77.040 L 66 89.081 74.250 88.790 L 82.500 88.500 82.782 76.750 L 83.063 65 74.532 65 L 66 65 66 77.040 M 41 67.500 C 41 67.775, 41.225 68, 41.500 68 C 41.775 68, 42 67.775, 42 67.500 C 42 67.225, 41.775 67, 41.500 67 C 41.225 67, 41 67.225, 41 67.500 M 37.923 72.923 C 36.315 74.531, 35 76.752, 35 77.860 C 35 79.574, 34.515 79.796, 31.750 79.347 C 29.367 78.960, 27.765 79.397, 25.750 80.982 C 23.839 82.486, 23 84.063, 23 86.154 L 23 89.163 35.589 88.832 C 47.965 88.506, 48.219 88.453, 50.589 85.694 C 52.149 83.878, 53 81.646, 53 79.367 C 53 76.809, 52.201 75.047, 50.077 72.923 C 48.082 70.928, 46.152 70, 44 70 C 41.848 70, 39.918 70.928, 37.923 72.923 M 53.797 86.006 L 52.093 89 57.547 89 C 62.939 89, 63 88.967, 63 86 C 63 83.199, 62.751 83, 59.250 83.006 C 56.134 83.012, 55.212 83.519, 53.797 86.006 M 85 86 L 85 89 95.500 89 L 106 89 106 86 L 106 83 95.500 83 L 85 83 85 86 M 109 85.403 C 109 87.575, 109.483 87.840, 114.001 88.153 C 118.873 88.491, 119.001 88.430, 119.001 85.750 C 119 83.117, 118.788 83, 114 83 C 109.387 83, 109 83.186, 109 85.403 M 7.280 88.736 C 9.909 88.943, 13.959 88.940, 16.280 88.731 C 18.601 88.521, 16.450 88.352, 11.500 88.355 C 6.550 88.358, 4.651 88.530, 7.280 88.736" stroke="none" fill="#bfdbfe" fill-rule="evenodd"/></svg>