<svg xmlns="http://www.w3.org/2000/svg" class="size-full" viewBox="0 0 165 165" version="1.1"><path d="M 77.450 9.407 C 75.773 10.137, 73.298 12.046, 71.950 13.648 C 70.603 15.250, 68.640 18.468, 67.590 20.799 C 65.860 24.636, 65.151 25.185, 60.090 26.595 C 57.015 27.452, 50.558 29.532, 45.740 31.217 C 40.922 32.902, 34.173 35.905, 30.744 37.891 C 27.314 39.876, 22.198 43.780, 19.373 46.566 C 15.514 50.372, 14.071 52.620, 13.566 55.607 C 13.197 57.793, 13.384 62.714, 13.982 66.541 C 14.579 70.368, 15.956 76.780, 17.042 80.789 C 18.127 84.797, 20.299 90.910, 21.869 94.372 C 23.501 97.971, 25.965 101.551, 27.621 102.730 C 29.215 103.865, 32.326 105.280, 34.535 105.875 C 36.744 106.470, 42.815 107.145, 48.026 107.375 C 55.442 107.703, 57.566 108.122, 57.805 109.304 C 57.973 110.134, 56.623 111.932, 54.805 113.299 C 52.987 114.666, 47.225 117.913, 42 120.514 C 36.775 123.114, 29.527 127.229, 25.894 129.658 C 22.261 132.086, 18.766 135.218, 18.128 136.618 C 17.318 138.396, 17.261 140.269, 17.939 142.832 C 18.472 144.849, 19.149 147.681, 19.442 149.124 C 19.735 150.567, 20.795 152.760, 21.798 153.999 C 22.926 155.392, 24.720 156.250, 26.505 156.250 C 28.448 156.250, 30.099 155.359, 31.567 153.518 C 33.746 150.786, 33.746 150.786, 54.934 150.582 C 76.122 150.379, 76.122 150.379, 78.842 154.439 C 80.759 157.302, 82.390 158.596, 84.369 158.825 C 86.063 159.021, 87.976 158.427, 89.191 157.327 C 90.298 156.325, 91.834 154.289, 92.602 152.802 C 93.371 151.316, 94 147.913, 94 145.241 C 94 142.569, 94.563 139.678, 95.250 138.817 C 95.938 137.956, 99.967 134.945, 104.205 132.126 C 108.443 129.307, 112.409 127, 113.019 127 C 113.630 127, 115.265 128.350, 116.653 130 C 118.042 131.650, 120.001 133, 121.007 133 C 122.013 133, 123.565 132.720, 124.455 132.379 C 125.346 132.037, 126.770 130.412, 127.620 128.767 C 128.471 127.123, 129.167 123.852, 129.167 121.500 C 129.167 119.148, 128.479 115.894, 127.639 114.270 C 126.227 111.539, 126.289 110.758, 128.454 103.908 C 129.747 99.819, 131.516 90.003, 132.403 82 C 133.286 74.025, 134.472 60.975, 135.038 53 C 135.604 45.025, 136.768 36.039, 137.625 33.030 C 138.482 30.022, 140.043 25.876, 141.093 23.817 C 142.143 21.759, 145.027 17.589, 147.501 14.551 C 149.976 11.514, 152 8.797, 152 8.514 C 152 8.231, 135.912 8.018, 116.250 8.039 C 88.794 8.069, 79.793 8.386, 77.450 9.407 M 79.170 20.750 C 78.675 21.712, 78.472 23.063, 78.718 23.750 C 79.054 24.687, 83.671 25, 97.160 25 C 115.154 25, 115.154 25, 118.077 27.923 C 119.685 29.531, 121 31.556, 121 32.423 C 121 33.811, 118.371 34, 99.059 34 C 82.599 34, 76.919 34.312, 76.320 35.250 C 75.881 35.938, 73.941 40.041, 72.011 44.370 C 70.080 48.698, 68.064 52.298, 67.531 52.370 C 66.997 52.441, 66.003 49.165, 65.320 45.090 C 64.638 41.014, 63.660 37.260, 63.147 36.747 C 62.569 36.169, 58.837 36.843, 53.357 38.513 C 48.486 39.998, 42.613 42.318, 40.307 43.668 C 38.001 45.018, 34.243 47.939, 31.955 50.159 C 29.239 52.795, 28.136 54.536, 28.776 55.176 C 29.315 55.715, 31.498 56.560, 33.628 57.054 C 35.757 57.548, 41.393 57.963, 46.151 57.976 C 50.908 57.989, 60.133 57.090, 66.651 55.977 C 73.168 54.865, 83.450 52.652, 89.500 51.060 C 95.550 49.469, 105.442 46.426, 111.481 44.298 C 120.159 41.242, 122.702 39.913, 123.604 37.965 C 124.232 36.609, 125.673 32.575, 126.808 29 C 127.942 25.425, 129.172 21.712, 129.542 20.750 C 130.171 19.112, 128.609 19, 105.142 19 C 82.274 19, 79.991 19.154, 79.170 20.750 M 105.500 101.588 C 102.750 102.364, 96.450 103.671, 91.500 104.495 C 86.550 105.318, 80.603 105.994, 78.285 105.996 C 74.966 105.999, 73.820 106.468, 72.891 108.204 C 72.242 109.416, 71.107 112.679, 70.368 115.454 C 69.628 118.229, 69.018 121.668, 69.012 123.095 C 69.005 124.522, 68.177 126.435, 67.171 127.345 C 66.165 128.255, 64.728 129, 63.976 129 C 63.224 129, 61.452 127.891, 60.036 126.535 C 57.463 124.069, 57.463 124.069, 49.813 127.395 C 45.605 129.224, 40.664 131.596, 38.831 132.666 C 36.999 133.737, 35.500 135.249, 35.500 136.028 C 35.500 136.916, 37.179 137.757, 40 138.281 C 42.475 138.741, 49.916 138.939, 56.535 138.721 C 67.685 138.353, 69.180 138.060, 76.854 134.742 C 81.410 132.773, 87.639 129.662, 90.697 127.831 C 93.756 125.999, 99.518 121.471, 103.502 117.769 C 109.121 112.550, 110.983 110.110, 111.797 106.902 C 112.374 104.627, 112.608 102.143, 112.317 101.382 C 112.025 100.622, 111.497 100.040, 111.143 100.089 C 110.789 100.139, 108.250 100.813, 105.500 101.588" stroke="none" fill="white" fill-rule="evenodd"/></svg>