<svg xmlns="http://www.w3.org/2000/svg" class="size-full" viewBox="0 0 320 415" version="1.1"><path d="M 134.783 225.956 C 133.126 227.259, 131.935 229.425, 131.518 231.891 C 131.157 234.027, 131.334 239.088, 131.911 243.137 C 132.488 247.187, 134.787 262.425, 137.020 277 C 139.252 291.575, 142.149 310.700, 143.457 319.499 C 144.765 328.298, 145.703 335.630, 145.542 335.792 C 145.380 335.953, 143.679 336.340, 141.762 336.651 C 138.275 337.217, 138.275 337.217, 137.112 329.396 C 136.283 323.820, 135.314 320.899, 133.737 319.220 C 132.521 317.925, 128.021 314.106, 123.739 310.733 C 119.456 307.359, 114.561 304.014, 112.861 303.300 C 111.161 302.585, 108.653 302, 107.286 302 C 105.920 302, 103.334 302.697, 101.540 303.548 C 99.745 304.400, 97.813 306.116, 97.245 307.362 C 96.529 308.932, 96.538 310.223, 97.274 311.564 C 97.857 312.629, 104.008 319.125, 110.941 326 C 117.874 332.875, 128.983 345.025, 135.627 353 C 142.270 360.975, 151.935 373.139, 157.103 380.030 C 162.271 386.922, 168.052 394.829, 169.950 397.601 C 173.399 402.642, 173.399 402.642, 191.950 399.853 C 202.152 398.319, 215.225 396.359, 221 395.497 C 226.775 394.635, 234.252 393.460, 237.616 392.886 C 243.732 391.841, 243.732 391.841, 244.288 380.171 C 244.594 373.752, 245.820 363.775, 247.014 358 C 248.251 352.018, 249.404 341.907, 249.695 334.500 C 250.125 323.536, 249.795 319.010, 247.583 305.600 C 245.605 293.602, 244.292 288.469, 242.231 284.684 C 240.730 281.925, 238.151 278.825, 236.500 277.795 C 234.513 276.554, 232.487 276.109, 230.500 276.475 C 228.850 276.778, 226.909 277.808, 226.186 278.763 C 225.275 279.968, 224.968 283.103, 225.186 289 C 225.500 297.500, 225.500 297.500, 222.046 297.500 C 218.592 297.500, 218.592 297.500, 216.875 289 C 215.930 284.325, 214.641 279.151, 214.009 277.502 C 213.378 275.853, 212.147 273.715, 211.275 272.752 C 210.304 271.679, 208.244 271, 205.956 271 C 203.889 271, 201.257 271.781, 200.061 272.750 C 198.873 273.712, 197.511 276.233, 197.033 278.351 C 196.556 280.468, 196.410 284.570, 196.709 287.466 C 197.252 292.730, 197.252 292.730, 193.524 293.430 C 191.473 293.814, 189.685 293.987, 189.550 293.814 C 189.415 293.642, 188.766 290.125, 188.108 286 C 187.450 281.875, 186.143 276.927, 185.205 275.005 C 184.212 272.969, 182.375 271.122, 180.803 270.581 C 179.004 269.961, 176.759 270.055, 174.059 270.864 C 171.201 271.720, 169.496 273.021, 168.256 275.288 C 166.873 277.818, 166.544 280.548, 166.707 288.143 C 166.913 297.786, 166.913 297.786, 163.871 298.232 C 161.466 298.585, 160.666 298.241, 160.056 296.589 C 159.631 295.440, 158.044 286.400, 156.529 276.500 C 155.014 266.600, 152.711 251.984, 151.412 244.021 C 149.840 234.394, 148.421 228.697, 147.174 227.021 C 145.824 225.204, 144.196 224.417, 141.346 224.202 C 138.539 223.991, 136.634 224.500, 134.783 225.956" stroke="none" fill="white" fill-rule="evenodd"/><path d="M 131.500 20.056 C 129.850 20.602, 124.707 21.729, 120.072 22.560 C 114.868 23.494, 109.322 25.302, 105.572 27.286 C 102.232 29.054, 96.562 33.425, 92.972 37 C 89.381 40.575, 84.821 46.425, 82.837 50 C 80.854 53.575, 78.021 59.875, 76.541 64 C 75.062 68.125, 73.598 74.499, 73.288 78.164 C 72.978 81.829, 72.449 85.231, 72.112 85.723 C 71.775 86.215, 62.725 87.616, 52 88.838 C 41.275 90.059, 31.150 91.052, 29.500 91.044 C 27.850 91.037, 25.901 91.410, 25.169 91.874 C 24.070 92.571, 24.193 95.837, 25.873 110.609 C 26.992 120.449, 28.149 131.200, 28.444 134.500 C 28.739 137.800, 30.093 150.850, 31.452 163.500 C 32.812 176.150, 34.379 191.225, 34.934 197 C 35.489 202.775, 36.860 216.050, 37.980 226.500 C 39.100 236.950, 41.147 256.300, 42.529 269.500 C 43.912 282.700, 46.082 303.287, 47.353 315.248 C 48.624 327.210, 49.858 337.192, 50.096 337.429 C 50.334 337.667, 55.922 337.248, 62.514 336.499 C 69.106 335.749, 80.125 334.635, 87 334.024 C 93.875 333.412, 101.024 332.645, 102.886 332.319 C 106.273 331.726, 106.273 331.726, 99.621 325.363 C 95.963 321.863, 92.078 317.537, 90.989 315.749 C 89.899 313.962, 89.006 311.104, 89.004 309.398 C 89.002 307.692, 90.026 304.774, 91.280 302.913 C 92.533 301.053, 95.346 298.519, 97.530 297.282 C 100.321 295.701, 103.133 295.035, 107 295.038 C 110.218 295.042, 114.160 295.808, 116.500 296.886 C 118.700 297.899, 123.425 301.019, 127 303.819 C 130.575 306.620, 133.649 308.483, 133.832 307.960 C 134.014 307.438, 132.523 296.095, 130.517 282.755 C 128.512 269.415, 126.226 254.675, 125.439 250 C 124.651 245.325, 124.005 238.670, 124.003 235.210 C 124.001 230.922, 124.626 227.692, 125.969 225.061 C 127.052 222.938, 129.435 220.276, 131.265 219.145 C 133.095 218.014, 136.457 216.791, 138.736 216.426 C 141.908 215.919, 143.915 216.264, 147.290 217.898 C 150.522 219.463, 152.388 221.298, 154.274 224.767 C 156.056 228.045, 157.341 232.882, 158.452 240.500 C 159.335 246.550, 160.509 254.200, 161.061 257.500 C 161.614 260.800, 162.318 264.769, 162.627 266.319 C 163.141 268.896, 163.335 269.007, 164.881 267.607 C 165.812 266.765, 168.230 265.384, 170.254 264.538 C 172.279 263.692, 176.005 263, 178.534 263 C 181.062 263, 184.114 263.492, 185.316 264.094 C 186.517 264.696, 188.500 266.375, 189.721 267.825 C 191.763 270.247, 192.046 270.323, 193.221 268.763 C 193.925 267.829, 196.173 266.376, 198.218 265.533 C 200.263 264.690, 204.460 264, 207.545 264 C 212.377 264, 213.524 264.386, 215.827 266.789 C 217.297 268.323, 218.972 270.417, 219.549 271.444 C 220.527 273.184, 220.763 273.201, 223.049 271.705 C 224.397 270.823, 227.366 269.803, 229.647 269.439 C 232.040 269.057, 235.309 269.277, 237.374 269.958 C 239.392 270.625, 242.693 273.116, 244.943 275.673 C 247.138 278.166, 249.800 282.522, 250.859 285.354 C 251.919 288.185, 253.555 295.901, 254.495 302.501 C 255.435 309.100, 256.570 314.889, 257.016 315.364 C 257.471 315.848, 264.145 315.474, 272.164 314.517 C 280.049 313.575, 286.740 312.658, 287.033 312.478 C 287.326 312.297, 287.186 307.954, 286.721 302.825 C 286.256 297.696, 284.990 285.400, 283.907 275.500 C 282.824 265.600, 281.489 252.775, 280.940 247 C 280.391 241.225, 278.841 226.150, 277.495 213.500 C 276.150 200.850, 273.673 177.225, 271.990 161 C 270.307 144.775, 267.824 121.375, 266.471 109 C 265.118 96.625, 263.715 82.322, 263.353 77.215 C 262.991 72.108, 262.382 67.736, 262 67.500 C 261.617 67.263, 254.148 67.741, 245.402 68.562 C 236.656 69.382, 224.027 70.717, 217.337 71.527 C 210.647 72.337, 204.510 73, 203.698 73 C 202.783 73, 201.960 71.577, 201.531 69.250 C 201.151 67.188, 199.495 62.125, 197.850 58 C 196.206 53.875, 193.354 48.250, 191.511 45.500 C 189.668 42.750, 185.762 38.223, 182.830 35.440 C 179.899 32.657, 175.585 29.106, 173.244 27.550 C 170.903 25.993, 165.728 23.585, 161.744 22.199 C 156.303 20.306, 152.011 19.602, 144.500 19.371 C 139 19.202, 133.150 19.511, 131.500 20.056 M 155 28.296 C 159.333 30.428, 164.007 33.994, 169.020 38.997 C 173.958 43.923, 177.793 48.904, 180.187 53.500 C 182.192 57.350, 184.639 63.537, 185.625 67.250 C 187.418 74, 187.418 74, 192.289 74 C 197.159 74, 197.159 74, 196.459 70.750 C 196.075 68.963, 194.603 64.575, 193.189 61 C 191.775 57.425, 189.185 52.246, 187.433 49.491 C 185.681 46.736, 182.279 42.504, 179.874 40.085 C 177.468 37.667, 173.234 34.231, 170.464 32.451 C 167.695 30.670, 162.360 28.265, 158.609 27.106 C 154.858 25.948, 151.049 25.022, 150.145 25.049 C 149.240 25.076, 151.425 26.537, 155 28.296 M 123 29.143 C 120.525 30.363, 115.121 34.767, 110.990 38.930 C 105.322 44.644, 102.539 48.462, 99.641 54.500 C 97.214 59.556, 95.102 66.100, 93.901 72.285 C 92.855 77.667, 92 82.779, 92 83.644 C 92 84.766, 92.645 85.064, 94.250 84.685 C 95.487 84.392, 105.725 83.195, 117 82.024 C 128.275 80.852, 147.346 78.809, 159.381 77.483 C 171.415 76.157, 181.411 74.922, 181.594 74.739 C 181.777 74.557, 181.335 72.178, 180.611 69.453 C 179.888 66.729, 177.596 61.132, 175.518 57.016 C 172.994 52.018, 169.537 47.330, 165.108 42.901 C 161.225 39.018, 155.994 35.027, 152.488 33.272 C 149.195 31.624, 144.925 29.794, 143 29.206 C 141.075 28.619, 136.800 27.865, 133.500 27.531 C 128.521 27.029, 126.734 27.303, 123 29.143 M 103.946 34.843 C 101.501 36.407, 97.456 39.894, 94.957 42.593 C 92.458 45.292, 89.021 49.975, 87.318 53 C 85.616 56.025, 83.043 61.963, 81.602 66.196 C 80.160 70.429, 78.696 76.616, 78.348 79.946 C 77.715 86, 77.715 86, 80.776 86 C 82.459 86, 84.548 85.727, 85.418 85.393 C 86.432 85.004, 87 83.564, 87 81.382 C 87 79.510, 87.897 73.952, 88.993 69.029 C 90.090 64.107, 92.517 56.936, 94.386 53.095 C 96.256 49.253, 98.805 44.622, 100.050 42.805 C 101.295 40.987, 103.909 37.813, 105.860 35.750 C 107.810 33.688, 109.178 32, 108.899 32 C 108.620 32, 106.391 33.279, 103.946 34.843 M 139.269 223.693 C 140.242 223.947, 141.592 223.930, 142.269 223.656 C 142.946 223.382, 142.150 223.175, 140.500 223.195 C 138.850 223.215, 138.296 223.439, 139.269 223.693 M 136 224.500 C 136 224.775, 136.225 225, 136.500 225 C 136.775 225, 137 224.775, 137 224.500 C 137 224.225, 136.775 224, 136.500 224 C 136.225 224, 136 224.225, 136 224.500 M 133.405 226.155 C 132.962 226.870, 133.130 227.038, 133.845 226.595 C 134.480 226.203, 135 225.684, 135 225.441 C 135 225.198, 134.802 225, 134.559 225 C 134.316 225, 133.797 225.520, 133.405 226.155 M 146 225.500 C 146 225.775, 146.225 226, 146.500 226 C 146.775 226, 147 225.775, 147 225.500 C 147 225.225, 146.775 225, 146.500 225 C 146.225 225, 146 225.225, 146 225.500 M 148 228.500 C 148 228.775, 148.225 229, 148.500 229 C 148.775 229, 149 228.775, 149 228.500 C 149 228.225, 148.775 228, 148.500 228 C 148.225 228, 148 228.225, 148 228.500 M 131 231 C 131 231.733, 131.300 232.033, 131.667 231.667 C 132.033 231.300, 132.033 230.700, 131.667 230.333 C 131.300 229.967, 131 230.267, 131 231 M 149 231 C 149 231.733, 149.300 232.033, 149.667 231.667 C 150.033 231.300, 150.033 230.700, 149.667 230.333 C 149.300 229.967, 149 230.267, 149 231 M 150.079 236.583 C 150.127 237.748, 150.364 237.985, 150.683 237.188 C 150.972 236.466, 150.936 235.603, 150.604 235.271 C 150.272 234.939, 150.036 235.529, 150.079 236.583 M 131.158 242 C 131.158 243.375, 131.385 243.938, 131.662 243.250 C 131.940 242.563, 131.940 241.438, 131.662 240.750 C 131.385 240.063, 131.158 240.625, 131.158 242 M 151.079 242.583 C 151.127 243.748, 151.364 243.985, 151.683 243.188 C 151.972 242.466, 151.936 241.603, 151.604 241.271 C 151.272 240.939, 151.036 241.529, 151.079 242.583 M 132 249 C 132 249.733, 132.300 250.033, 132.667 249.667 C 133.033 249.300, 133.033 248.700, 132.667 248.333 C 132.300 247.967, 132 248.267, 132 249 M 152 249 C 152 249.733, 152.300 250.033, 152.667 249.667 C 153.033 249.300, 153.033 248.700, 152.667 248.333 C 152.300 247.967, 152 248.267, 152 249 M 133 255 C 133 255.733, 133.300 256.033, 133.667 255.667 C 134.033 255.300, 134.033 254.700, 133.667 254.333 C 133.300 253.967, 133 254.267, 133 255 M 153 255 C 153 255.733, 153.300 256.033, 153.667 255.667 C 154.033 255.300, 154.033 254.700, 153.667 254.333 C 153.300 253.967, 153 254.267, 153 255 M 134.079 261.583 C 134.127 262.748, 134.364 262.985, 134.683 262.188 C 134.972 261.466, 134.936 260.603, 134.604 260.271 C 134.272 259.939, 134.036 260.529, 134.079 261.583 M 154.158 262 C 154.158 263.375, 154.385 263.938, 154.662 263.250 C 154.940 262.563, 154.940 261.438, 154.662 260.750 C 154.385 260.063, 154.158 260.625, 154.158 262 M 135 268 C 135 268.733, 135.300 269.033, 135.667 268.667 C 136.033 268.300, 136.033 267.700, 135.667 267.333 C 135.300 266.967, 135 267.267, 135 268 M 155.158 269 C 155.158 270.375, 155.385 270.938, 155.662 270.250 C 155.940 269.563, 155.940 268.438, 155.662 267.750 C 155.385 267.063, 155.158 267.625, 155.158 269 M 173.333 270.667 C 173.700 271.033, 174.300 271.033, 174.667 270.667 C 175.033 270.300, 174.733 270, 174 270 C 173.267 270, 172.967 270.300, 173.333 270.667 M 181 270.500 C 181 270.775, 181.225 271, 181.500 271 C 181.775 271, 182 270.775, 182 270.500 C 182 270.225, 181.775 270, 181.500 270 C 181.225 270, 181 270.225, 181 270.500 M 206.333 270.667 C 206.700 271.033, 207.300 271.033, 207.667 270.667 C 208.033 270.300, 207.733 270, 207 270 C 206.267 270, 205.967 270.300, 206.333 270.667 M 171 271.500 C 171 271.775, 171.225 272, 171.500 272 C 171.775 272, 172 271.775, 172 271.500 C 172 271.225, 171.775 271, 171.500 271 C 171.225 271, 171 271.225, 171 271.500 M 183.500 272 C 183.840 272.550, 184.343 273, 184.618 273 C 184.893 273, 184.840 272.550, 184.500 272 C 184.160 271.450, 183.657 271, 183.382 271 C 183.107 271, 183.160 271.450, 183.500 272 M 201 271.500 C 201 271.775, 201.225 272, 201.500 272 C 201.775 272, 202 271.775, 202 271.500 C 202 271.225, 201.775 271, 201.500 271 C 201.225 271, 201 271.225, 201 271.500 M 210.500 272 C 210.840 272.550, 211.343 273, 211.618 273 C 211.893 273, 211.840 272.550, 211.500 272 C 211.160 271.450, 210.657 271, 210.382 271 C 210.107 271, 210.160 271.450, 210.500 272 M 198.405 273.155 C 197.962 273.870, 198.130 274.038, 198.845 273.595 C 199.480 273.203, 200 272.684, 200 272.441 C 200 272.198, 199.802 272, 199.559 272 C 199.316 272, 198.797 272.520, 198.405 273.155 M 136.158 275 C 136.158 276.375, 136.385 276.938, 136.662 276.250 C 136.940 275.563, 136.940 274.438, 136.662 273.750 C 136.385 273.063, 136.158 273.625, 136.158 275 M 156.079 275.583 C 156.127 276.748, 156.364 276.985, 156.683 276.188 C 156.972 275.466, 156.936 274.603, 156.604 274.271 C 156.272 273.939, 156.036 274.529, 156.079 275.583 M 168 274.500 C 168 274.775, 168.225 275, 168.500 275 C 168.775 275, 169 274.775, 169 274.500 C 169 274.225, 168.775 274, 168.500 274 C 168.225 274, 168 274.225, 168 274.500 M 185 274.500 C 185 274.775, 185.225 275, 185.500 275 C 185.775 275, 186 274.775, 186 274.500 C 186 274.225, 185.775 274, 185.500 274 C 185.225 274, 185 274.225, 185 274.500 M 197 275.500 C 197 275.775, 197.225 276, 197.500 276 C 197.775 276, 198 275.775, 198 275.500 C 198 275.225, 197.775 275, 197.500 275 C 197.225 275, 197 275.225, 197 275.500 M 167 276.500 C 167 276.775, 167.225 277, 167.500 277 C 167.775 277, 168 276.775, 168 276.500 C 168 276.225, 167.775 276, 167.500 276 C 167.225 276, 167 276.225, 167 276.500 M 229 276.500 C 229 276.775, 229.225 277, 229.500 277 C 229.775 277, 230 276.775, 230 276.500 C 230 276.225, 229.775 276, 229.500 276 C 229.225 276, 229 276.225, 229 276.500 M 234 276.500 C 234 276.775, 234.225 277, 234.500 277 C 234.775 277, 235 276.775, 235 276.500 C 235 276.225, 234.775 276, 234.500 276 C 234.225 276, 234 276.225, 234 276.500 M 186 277.500 C 186 277.775, 186.225 278, 186.500 278 C 186.775 278, 187 277.775, 187 277.500 C 187 277.225, 186.775 277, 186.500 277 C 186.225 277, 186 277.225, 186 277.500 M 236 277.500 C 236 277.775, 236.225 278, 236.500 278 C 236.775 278, 237 277.775, 237 277.500 C 237 277.225, 236.775 277, 236.500 277 C 236.225 277, 236 277.225, 236 277.500 M 196.079 279.583 C 196.127 280.748, 196.364 280.985, 196.683 280.188 C 196.972 279.466, 196.936 278.603, 196.604 278.271 C 196.272 277.939, 196.036 278.529, 196.079 279.583 M 214 278.500 C 214 278.775, 214.225 279, 214.500 279 C 214.775 279, 215 278.775, 215 278.500 C 215 278.225, 214.775 278, 214.500 278 C 214.225 278, 214 278.225, 214 278.500 M 166 280 C 166 280.733, 166.300 281.033, 166.667 280.667 C 167.033 280.300, 167.033 279.700, 166.667 279.333 C 166.300 278.967, 166 279.267, 166 280 M 225 279.500 C 225 279.775, 225.225 280, 225.500 280 C 225.775 280, 226 279.775, 226 279.500 C 226 279.225, 225.775 279, 225.500 279 C 225.225 279, 225 279.225, 225 279.500 M 137.079 281.583 C 137.127 282.748, 137.364 282.985, 137.683 282.188 C 137.972 281.466, 137.936 280.603, 137.604 280.271 C 137.272 279.939, 137.036 280.529, 137.079 281.583 M 187 281 C 187 281.733, 187.300 282.033, 187.667 281.667 C 188.033 281.300, 188.033 280.700, 187.667 280.333 C 187.300 279.967, 187 280.267, 187 281 M 157 282 C 157 282.733, 157.300 283.033, 157.667 282.667 C 158.033 282.300, 158.033 281.700, 157.667 281.333 C 157.300 280.967, 157 281.267, 157 282 M 215 281.500 C 215 281.775, 215.225 282, 215.500 282 C 215.775 282, 216 281.775, 216 281.500 C 216 281.225, 215.775 281, 215.500 281 C 215.225 281, 215 281.225, 215 281.500 M 240 281.500 C 240 281.775, 240.225 282, 240.500 282 C 240.775 282, 241 281.775, 241 281.500 C 241 281.225, 240.775 281, 240.500 281 C 240.225 281, 240 281.225, 240 281.500 M 216.079 285.583 C 216.127 286.748, 216.364 286.985, 216.683 286.188 C 216.972 285.466, 216.936 284.603, 216.604 284.271 C 216.272 283.939, 216.036 284.529, 216.079 285.583 M 242 284.500 C 242 284.775, 242.225 285, 242.500 285 C 242.775 285, 243 284.775, 243 284.500 C 243 284.225, 242.775 284, 242.500 284 C 242.225 284, 242 284.225, 242 284.500 M 188.079 286.583 C 188.127 287.748, 188.364 287.985, 188.683 287.188 C 188.972 286.466, 188.936 285.603, 188.604 285.271 C 188.272 284.939, 188.036 285.529, 188.079 286.583 M 196.158 287 C 196.158 288.375, 196.385 288.938, 196.662 288.250 C 196.940 287.563, 196.940 286.438, 196.662 285.750 C 196.385 285.063, 196.158 285.625, 196.158 287 M 243 286.500 C 243 286.775, 243.225 287, 243.500 287 C 243.775 287, 244 286.775, 244 286.500 C 244 286.225, 243.775 286, 243.500 286 C 243.225 286, 243 286.225, 243 286.500 M 138.079 288.583 C 138.127 289.748, 138.364 289.985, 138.683 289.188 C 138.972 288.466, 138.936 287.603, 138.604 287.271 C 138.272 286.939, 138.036 287.529, 138.079 288.583 M 158 288 C 158 288.733, 158.300 289.033, 158.667 288.667 C 159.033 288.300, 159.033 287.700, 158.667 287.333 C 158.300 286.967, 158 287.267, 158 288 M 244 288.500 C 244 288.775, 244.225 289, 244.500 289 C 244.775 289, 245 288.775, 245 288.500 C 245 288.225, 244.775 288, 244.500 288 C 244.225 288, 244 288.225, 244 288.500 M 166.079 290.583 C 166.127 291.748, 166.364 291.985, 166.683 291.188 C 166.972 290.466, 166.936 289.603, 166.604 289.271 C 166.272 288.939, 166.036 289.529, 166.079 290.583 M 217.079 290.583 C 217.127 291.748, 217.364 291.985, 217.683 291.188 C 217.972 290.466, 217.936 289.603, 217.604 289.271 C 217.272 288.939, 217.036 289.529, 217.079 290.583 M 225.079 291.583 C 225.127 292.748, 225.364 292.985, 225.683 292.188 C 225.972 291.466, 225.936 290.603, 225.604 290.271 C 225.272 289.939, 225.036 290.529, 225.079 291.583 M 189.079 292.583 C 189.127 293.748, 189.364 293.985, 189.683 293.188 C 189.972 292.466, 189.936 291.603, 189.604 291.271 C 189.272 290.939, 189.036 291.529, 189.079 292.583 M 245 292 C 245 292.733, 245.300 293.033, 245.667 292.667 C 246.033 292.300, 246.033 291.700, 245.667 291.333 C 245.300 290.967, 245 291.267, 245 292 M 159 294 C 159 294.733, 159.300 295.033, 159.667 294.667 C 160.033 294.300, 160.033 293.700, 159.667 293.333 C 159.300 292.967, 159 293.267, 159 294 M 191.333 293.667 C 191.700 294.033, 192.300 294.033, 192.667 293.667 C 193.033 293.300, 192.733 293, 192 293 C 191.267 293, 190.967 293.300, 191.333 293.667 M 139 295 C 139 295.733, 139.300 296.033, 139.667 295.667 C 140.033 295.300, 140.033 294.700, 139.667 294.333 C 139.300 293.967, 139 294.267, 139 295 M 218 296 C 218 296.733, 218.300 297.033, 218.667 296.667 C 219.033 296.300, 219.033 295.700, 218.667 295.333 C 218.300 294.967, 218 295.267, 218 296 M 165.333 297.667 C 165.700 298.033, 166.300 298.033, 166.667 297.667 C 167.033 297.300, 166.733 297, 166 297 C 165.267 297, 164.967 297.300, 165.333 297.667 M 221.750 297.662 C 222.438 297.940, 223.563 297.940, 224.250 297.662 C 224.938 297.385, 224.375 297.158, 223 297.158 C 221.625 297.158, 221.063 297.385, 221.750 297.662 M 246 298 C 246 298.733, 246.300 299.033, 246.667 298.667 C 247.033 298.300, 247.033 297.700, 246.667 297.333 C 246.300 296.967, 246 297.267, 246 298 M 161 298.500 C 161 298.775, 161.225 299, 161.500 299 C 161.775 299, 162 298.775, 162 298.500 C 162 298.225, 161.775 298, 161.500 298 C 161.225 298, 161 298.225, 161 298.500 M 140 301 C 140 301.733, 140.300 302.033, 140.667 301.667 C 141.033 301.300, 141.033 300.700, 140.667 300.333 C 140.300 299.967, 140 300.267, 140 301 M 102.333 302.667 C 102.700 303.033, 103.300 303.033, 103.667 302.667 C 104.033 302.300, 103.733 302, 103 302 C 102.267 302, 101.967 302.300, 102.333 302.667 M 111 302.500 C 111 302.775, 111.225 303, 111.500 303 C 111.775 303, 112 302.775, 112 302.500 C 112 302.225, 111.775 302, 111.500 302 C 111.225 302, 111 302.225, 111 302.500 M 99.405 304.155 C 98.962 304.870, 99.130 305.038, 99.845 304.595 C 100.480 304.203, 101 303.684, 101 303.441 C 101 303.198, 100.802 303, 100.559 303 C 100.316 303, 99.797 303.520, 99.405 304.155 M 113.333 303.667 C 113.700 304.033, 114.300 304.033, 114.667 303.667 C 115.033 303.300, 114.733 303, 114 303 C 113.267 303, 112.967 303.300, 113.333 303.667 M 247 304 C 247 304.733, 247.300 305.033, 247.667 304.667 C 248.033 304.300, 248.033 303.700, 247.667 303.333 C 247.300 302.967, 247 303.267, 247 304 M 117.500 306 C 117.840 306.550, 118.343 307, 118.618 307 C 118.893 307, 118.840 306.550, 118.500 306 C 118.160 305.450, 117.657 305, 117.382 305 C 117.107 305, 117.160 305.450, 117.500 306 M 97 306.500 C 97 306.775, 97.225 307, 97.500 307 C 97.775 307, 98 306.775, 98 306.500 C 98 306.225, 97.775 306, 97.500 306 C 97.225 306, 97 306.225, 97 306.500 M 141.079 307.583 C 141.127 308.748, 141.364 308.985, 141.683 308.188 C 141.972 307.466, 141.936 306.603, 141.604 306.271 C 141.272 305.939, 141.036 306.529, 141.079 307.583 M 96 308.500 C 96 308.775, 96.225 309, 96.500 309 C 96.775 309, 97 308.775, 97 308.500 C 97 308.225, 96.775 308, 96.500 308 C 96.225 308, 96 308.225, 96 308.500 M 121.500 309 C 121.840 309.550, 122.343 310, 122.618 310 C 122.893 310, 122.840 309.550, 122.500 309 C 122.160 308.450, 121.657 308, 121.382 308 C 121.107 308, 121.160 308.450, 121.500 309 M 248 310 C 248 310.733, 248.300 311.033, 248.667 310.667 C 249.033 310.300, 249.033 309.700, 248.667 309.333 C 248.300 308.967, 248 309.267, 248 310 M 96 310.500 C 96 310.775, 96.225 311, 96.500 311 C 96.775 311, 97 310.775, 97 310.500 C 97 310.225, 96.775 310, 96.500 310 C 96.225 310, 96 310.225, 96 310.500 M 97 312.500 C 97 312.775, 97.225 313, 97.500 313 C 97.775 313, 98 312.775, 98 312.500 C 98 312.225, 97.775 312, 97.500 312 C 97.225 312, 97 312.225, 97 312.500 M 126 312.378 C 126 312.585, 126.787 313.373, 127.750 314.128 C 129.336 315.371, 129.371 315.336, 128.128 313.750 C 127.373 312.788, 126.585 312, 126.378 312 C 126.170 312, 126 312.170, 126 312.378 M 142.158 314 C 142.158 315.375, 142.385 315.938, 142.662 315.250 C 142.940 314.563, 142.940 313.438, 142.662 312.750 C 142.385 312.063, 142.158 312.625, 142.158 314 M 100 316.500 C 101.292 317.875, 102.574 319, 102.849 319 C 103.124 319, 102.292 317.875, 101 316.500 C 99.708 315.125, 98.426 314, 98.151 314 C 97.876 314, 98.708 315.125, 100 316.500 M 249.079 316.583 C 249.127 317.748, 249.364 317.985, 249.683 317.188 C 249.972 316.466, 249.936 315.603, 249.604 315.271 C 249.272 314.939, 249.036 315.529, 249.079 316.583 M 133.500 319 C 134.495 320.100, 135.535 321, 135.810 321 C 136.085 321, 135.495 320.100, 134.500 319 C 133.505 317.900, 132.465 317, 132.190 317 C 131.915 317, 132.505 317.900, 133.500 319 M 143.079 321.583 C 143.127 322.748, 143.364 322.985, 143.683 322.188 C 143.972 321.466, 143.936 320.603, 143.604 320.271 C 143.272 319.939, 143.036 320.529, 143.079 321.583 M 112.500 328 C 115.766 331.300, 118.662 334, 118.937 334 C 119.212 334, 116.766 331.300, 113.500 328 C 110.234 324.700, 107.338 322, 107.063 322 C 106.788 322, 109.234 324.700, 112.500 328 M 136 324 C 136 324.733, 136.300 325.033, 136.667 324.667 C 137.033 324.300, 137.033 323.700, 136.667 323.333 C 136.300 322.967, 136 323.267, 136 324 M 250.336 330 C 250.336 334.125, 250.513 335.813, 250.728 333.750 C 250.944 331.688, 250.944 328.313, 250.728 326.250 C 250.513 324.188, 250.336 325.875, 250.336 330 M 144 327.500 C 144 327.775, 144.225 328, 144.500 328 C 144.775 328, 145 327.775, 145 327.500 C 145 327.225, 144.775 327, 144.500 327 C 144.225 327, 144 327.225, 144 327.500 M 137 331 C 137 331.733, 137.300 332.033, 137.667 331.667 C 138.033 331.300, 138.033 330.700, 137.667 330.333 C 137.300 329.967, 137 330.267, 137 331 M 145 333.500 C 145 333.775, 145.225 334, 145.500 334 C 145.775 334, 146 333.775, 146 333.500 C 146 333.225, 145.775 333, 145.500 333 C 145.225 333, 145 333.225, 145 333.500 M 138 336.500 C 138 336.775, 138.225 337, 138.500 337 C 138.775 337, 139 336.775, 139 336.500 C 139 336.225, 138.775 336, 138.500 336 C 138.225 336, 138 336.225, 138 336.500 M 140.813 336.683 C 141.534 336.972, 142.397 336.936, 142.729 336.604 C 143.061 336.272, 142.471 336.036, 141.417 336.079 C 140.252 336.127, 140.015 336.364, 140.813 336.683 M 125.500 342 C 126.495 343.100, 127.535 344, 127.810 344 C 128.085 344, 127.495 343.100, 126.500 342 C 125.505 340.900, 124.465 340, 124.190 340 C 123.915 340, 124.505 340.900, 125.500 342 M 249.079 344.583 C 249.127 345.748, 249.364 345.985, 249.683 345.188 C 249.972 344.466, 249.936 343.603, 249.604 343.271 C 249.272 342.939, 249.036 343.529, 249.079 344.583 M 131 348.378 C 131 348.585, 131.787 349.373, 132.750 350.128 C 134.336 351.371, 134.371 351.336, 133.128 349.750 C 132.373 348.788, 131.585 348, 131.378 348 C 131.170 348, 131 348.170, 131 348.378 M 248 350.500 C 248 350.775, 248.225 351, 248.500 351 C 248.775 351, 249 350.775, 249 350.500 C 249 350.225, 248.775 350, 248.500 350 C 248.225 350, 248 350.225, 248 350.500 M 136 354.378 C 136 354.585, 136.787 355.373, 137.750 356.128 C 139.336 357.371, 139.371 357.336, 138.128 355.750 C 137.373 354.788, 136.585 354, 136.378 354 C 136.170 354, 136 354.170, 136 354.378 M 247 356 C 247 356.733, 247.300 357.033, 247.667 356.667 C 248.033 356.300, 248.033 355.700, 247.667 355.333 C 247.300 354.967, 247 355.267, 247 356 M 141.500 361 C 141.840 361.550, 142.343 362, 142.618 362 C 142.893 362, 142.840 361.550, 142.500 361 C 142.160 360.450, 141.657 360, 141.382 360 C 141.107 360, 141.160 360.450, 141.500 361 M 246 361.500 C 246 361.775, 246.225 362, 246.500 362 C 246.775 362, 247 361.775, 247 361.500 C 247 361.225, 246.775 361, 246.500 361 C 246.225 361, 246 361.225, 246 361.500 M 146.500 367 C 146.840 367.550, 147.343 368, 147.618 368 C 147.893 368, 147.840 367.550, 147.500 367 C 147.160 366.450, 146.657 366, 146.382 366 C 146.107 366, 146.160 366.450, 146.500 367 M 245.079 367.583 C 245.127 368.748, 245.364 368.985, 245.683 368.188 C 245.972 367.466, 245.936 366.603, 245.604 366.271 C 245.272 365.939, 245.036 366.529, 245.079 367.583 M 149.500 371 C 149.840 371.550, 150.343 372, 150.618 372 C 150.893 372, 150.840 371.550, 150.500 371 C 150.160 370.450, 149.657 370, 149.382 370 C 149.107 370, 149.160 370.450, 149.500 371 M 244.079 374.583 C 244.127 375.748, 244.364 375.985, 244.683 375.188 C 244.972 374.466, 244.936 373.603, 244.604 373.271 C 244.272 372.939, 244.036 373.529, 244.079 374.583 M 153.500 376 C 153.840 376.550, 154.343 377, 154.618 377 C 154.893 377, 154.840 376.550, 154.500 376 C 154.160 375.450, 153.657 375, 153.382 375 C 153.107 375, 153.160 375.450, 153.500 376 M 157 380.500 C 157 380.775, 157.225 381, 157.500 381 C 157.775 381, 158 380.775, 158 380.500 C 158 380.225, 157.775 380, 157.500 380 C 157.225 380, 157 380.225, 157 380.500 M 159.500 384 C 159.840 384.550, 160.343 385, 160.618 385 C 160.893 385, 160.840 384.550, 160.500 384 C 160.160 383.450, 159.657 383, 159.382 383 C 159.107 383, 159.160 383.450, 159.500 384 M 165 391.500 C 165 391.775, 165.225 392, 165.500 392 C 165.775 392, 166 391.775, 166 391.500 C 166 391.225, 165.775 391, 165.500 391 C 165.225 391, 165 391.225, 165 391.500 M 240.333 392.667 C 240.700 393.033, 241.300 393.033, 241.667 392.667 C 242.033 392.300, 241.733 392, 241 392 C 240.267 392, 239.967 392.300, 240.333 392.667 M 234.333 393.667 C 234.700 394.033, 235.300 394.033, 235.667 393.667 C 236.033 393.300, 235.733 393, 235 393 C 234.267 393, 233.967 393.300, 234.333 393.667 M 167 394.500 C 167 394.775, 167.225 395, 167.500 395 C 167.775 395, 168 394.775, 168 394.500 C 168 394.225, 167.775 394, 167.500 394 C 167.225 394, 167 394.225, 167 394.500 M 228.333 394.667 C 228.700 395.033, 229.300 395.033, 229.667 394.667 C 230.033 394.300, 229.733 394, 229 394 C 228.267 394, 227.967 394.300, 228.333 394.667 M 220.813 395.683 C 221.534 395.972, 222.397 395.936, 222.729 395.604 C 223.061 395.272, 222.471 395.036, 221.417 395.079 C 220.252 395.127, 220.015 395.364, 220.813 395.683 M 214.813 396.683 C 215.534 396.972, 216.397 396.936, 216.729 396.604 C 217.061 396.272, 216.471 396.036, 215.417 396.079 C 214.252 396.127, 214.015 396.364, 214.813 396.683 M 169.500 398 C 169.840 398.550, 170.343 399, 170.618 399 C 170.893 399, 170.840 398.550, 170.500 398 C 170.160 397.450, 169.657 397, 169.382 397 C 169.107 397, 169.160 397.450, 169.500 398 M 208 397.500 C 208 397.775, 208.225 398, 208.500 398 C 208.775 398, 209 397.775, 209 397.500 C 209 397.225, 208.775 397, 208.500 397 C 208.225 397, 208 397.225, 208 397.500 M 201 398.500 C 201 398.775, 201.225 399, 201.500 399 C 201.775 399, 202 398.775, 202 398.500 C 202 398.225, 201.775 398, 201.500 398 C 201.225 398, 201 398.225, 201 398.500 M 195.333 399.667 C 195.700 400.033, 196.300 400.033, 196.667 399.667 C 197.033 399.300, 196.733 399, 196 399 C 195.267 399, 194.967 399.300, 195.333 399.667 M 171.500 401 C 171.840 401.550, 172.343 402, 172.618 402 C 172.893 402, 172.840 401.550, 172.500 401 C 172.160 400.450, 171.657 400, 171.382 400 C 171.107 400, 171.160 400.450, 171.500 401 M 188.813 400.683 C 189.534 400.972, 190.397 400.936, 190.729 400.604 C 191.061 400.272, 190.471 400.036, 189.417 400.079 C 188.252 400.127, 188.015 400.364, 188.813 400.683 M 181.813 401.683 C 182.534 401.972, 183.397 401.936, 183.729 401.604 C 184.061 401.272, 183.471 401.036, 182.417 401.079 C 181.252 401.127, 181.015 401.364, 181.813 401.683 M 174.813 402.683 C 175.534 402.972, 176.397 402.936, 176.729 402.604 C 177.061 402.272, 176.471 402.036, 175.417 402.079 C 174.252 402.127, 174.015 402.364, 174.813 402.683" stroke="none" fill="white" fill-rule="evenodd"/></svg>